<?xml version="1.0" encoding="UTF-8" ?>
<!DOCTYPE svg PUBLIC "-//W3C//DTD SVG 1.1//EN" "http://www.w3.org/Graphics/SVG/1.1/DTD/svg11.dtd">
<svg width="767pt" height="767pt" viewBox="0 0 767 767" version="1.1" xmlns="http://www.w3.org/2000/svg">
<path fill="#ffffff" d=" M 0.00 0.00 L 355.74 0.00 C 352.01 1.87 347.71 0.76 343.73 0.97 C 343.37 1.23 342.64 1.76 342.27 2.02 C 339.76 2.01 337.24 1.99 334.74 1.98 C 334.37 2.24 333.64 2.76 333.27 3.02 C 331.42 3.01 329.57 2.99 327.73 2.98 C 327.37 3.24 326.63 3.76 326.27 4.02 C 324.42 4.01 322.58 3.99 320.74 3.98 C 320.37 4.24 319.63 4.76 319.26 5.02 C 317.75 5.01 316.24 4.99 314.73 4.98 C 314.37 5.24 313.64 5.76 313.27 6.02 C 312.39 6.01 310.62 5.99 309.74 5.98 C 309.37 6.24 308.64 6.76 308.27 7.02 C 307.39 7.01 305.63 6.99 304.74 6.98 C 304.38 7.23 303.64 7.73 303.27 7.98 C 302.43 8.02 300.74 8.11 299.89 8.16 C 292.80 10.27 285.52 11.68 278.41 13.73 C 259.71 19.05 241.38 25.67 223.67 33.69 C 217.47 36.84 210.78 38.99 204.97 42.91 C 184.84 53.03 165.90 65.41 148.08 79.18 C 139.01 86.36 129.83 93.47 121.73 101.74 C 114.03 107.96 106.97 115.02 100.75 122.72 C 92.96 130.31 86.28 138.93 79.47 147.39 C 71.38 158.10 63.26 168.84 56.39 180.39 C 49.73 190.38 44.64 201.27 38.64 211.63 C 30.86 228.56 23.19 245.62 17.69 263.45 C 13.25 275.66 10.57 288.38 7.18 300.89 C 7.13 301.74 7.03 303.44 6.98 304.28 C 6.73 304.65 6.23 305.37 5.98 305.73 C 5.99 306.61 6.01 308.38 6.02 309.26 C 5.76 309.63 5.24 310.36 4.98 310.73 C 4.99 311.61 5.01 313.38 5.02 314.26 C 4.76 314.63 4.24 315.37 3.98 315.74 C 3.99 317.25 4.01 318.76 4.02 320.27 C 3.76 320.64 3.24 321.37 2.98 321.73 C 2.99 323.57 3.01 325.42 3.02 327.27 C 2.76 327.63 2.24 328.36 1.98 328.73 C 1.99 330.57 2.00 332.41 2.02 334.26 C 1.77 334.63 1.26 335.36 1.01 335.73 C 1.14 338.93 1.11 342.20 0.00 345.26 L 0.00 0.00 Z" />
<path fill="#808e8e" d=" M 355.74 0.00 L 408.74 0.00 C 412.76 1.47 417.08 1.00 421.27 0.97 C 421.63 1.23 422.36 1.76 422.73 2.02 C 425.22 2.00 427.73 1.99 430.23 1.99 C 430.60 2.22 431.36 2.69 431.73 2.92 C 434.16 2.92 436.62 3.05 438.95 3.79 C 440.72 3.91 442.49 3.98 444.28 4.04 C 444.64 4.28 445.38 4.77 445.75 5.01 C 447.25 5.00 448.76 4.99 450.27 4.98 C 450.63 5.24 451.36 5.76 451.73 6.02 C 452.61 6.01 454.38 5.99 455.26 5.98 C 455.63 6.24 456.36 6.76 456.73 7.02 C 457.61 7.01 459.38 6.99 460.26 6.98 C 460.63 7.23 461.36 7.73 461.72 7.98 C 462.57 8.02 464.27 8.11 465.12 8.16 C 467.02 8.71 468.93 9.22 470.84 9.75 C 474.29 10.53 477.70 11.45 481.15 12.25 C 495.63 16.08 509.84 20.90 523.85 26.18 C 533.92 30.27 543.77 34.89 553.70 39.30 C 557.84 41.46 561.72 44.10 566.00 45.99 C 591.04 59.29 614.16 75.99 635.61 94.47 C 638.62 96.74 640.97 99.73 643.79 102.20 C 649.97 106.94 655.27 112.70 660.64 118.31 C 663.89 123.02 668.54 126.47 672.01 130.99 C 690.18 152.03 706.47 174.78 719.65 199.29 C 722.76 206.06 727.25 212.12 729.72 219.20 C 739.88 240.22 747.66 262.33 753.75 284.85 C 755.04 290.22 756.29 295.60 757.84 300.90 C 757.89 301.74 757.98 303.43 758.02 304.27 C 758.27 304.64 758.77 305.37 759.02 305.74 C 759.01 306.62 758.99 308.39 758.98 309.28 C 759.24 309.64 759.76 310.38 760.02 310.74 C 760.01 311.63 759.99 313.39 759.98 314.28 C 760.24 314.64 760.76 315.37 761.02 315.73 C 761.00 317.23 760.98 318.74 760.98 320.26 C 761.24 320.62 761.76 321.36 762.02 321.73 C 762.00 323.57 761.98 325.42 761.98 327.27 C 762.24 327.64 762.76 328.38 763.02 328.75 C 763.00 330.59 762.98 332.43 762.98 334.27 C 763.24 334.64 763.76 335.37 764.02 335.73 C 764.00 338.24 763.99 340.76 763.98 343.27 C 764.24 343.64 764.76 344.37 765.02 344.73 C 765.00 348.24 764.99 351.75 764.98 355.27 C 765.24 355.63 765.76 356.37 766.02 356.73 C 765.99 374.58 765.99 392.42 766.02 410.26 C 765.76 410.63 765.24 411.36 764.98 411.73 C 764.99 415.24 765.00 418.75 765.02 422.27 C 764.76 422.64 764.24 423.37 763.98 423.73 C 763.99 426.24 764.00 428.75 764.02 431.26 C 763.76 431.63 763.24 432.37 762.98 432.74 C 762.98 434.58 763.00 436.42 763.02 438.26 C 762.76 438.63 762.24 439.37 761.98 439.74 C 761.98 441.57 762.00 443.41 762.02 445.25 C 761.76 445.62 761.24 446.36 760.98 446.74 C 760.98 448.24 761.00 449.75 761.02 451.27 C 760.76 451.63 760.24 452.37 759.98 452.73 C 759.99 453.62 760.01 455.39 760.02 456.27 C 759.76 456.64 759.24 457.37 758.99 457.73 C 758.99 458.61 758.99 460.36 759.00 461.24 C 758.79 461.60 758.39 462.33 758.18 462.70 C 755.25 478.01 751.01 493.09 745.89 507.82 C 741.42 522.03 735.39 535.68 729.13 549.18 C 726.79 555.75 722.49 561.32 719.68 567.66 C 711.62 582.52 702.59 596.86 692.46 610.40 C 683.52 622.34 674.37 634.21 663.81 644.77 C 657.49 652.74 650.00 659.73 642.22 666.25 C 638.29 670.69 633.42 674.11 629.10 678.13 C 614.99 689.53 600.55 700.61 585.01 709.99 C 574.75 716.71 563.67 722.00 553.03 728.03 C 545.30 731.10 538.08 735.31 530.23 738.11 C 514.28 744.77 497.84 750.26 481.15 754.77 C 479.04 755.23 476.95 755.75 474.85 756.24 C 470.51 757.40 466.17 758.66 461.70 759.18 C 461.34 759.38 460.60 759.79 460.24 760.00 C 459.36 760.00 457.60 759.99 456.73 759.99 C 456.36 760.24 455.63 760.76 455.27 761.02 C 454.39 761.01 452.62 760.99 451.74 760.98 C 451.37 761.24 450.63 761.76 450.26 762.02 C 448.75 762.00 447.24 761.98 445.73 761.98 C 445.36 762.24 444.63 762.76 444.27 763.02 C 442.42 763.00 440.57 762.98 438.73 762.98 C 438.36 763.24 437.63 763.76 437.27 764.02 C 435.41 764.00 433.57 763.98 431.73 763.98 C 431.36 764.24 430.63 764.76 430.27 765.02 C 427.75 765.00 425.25 764.99 422.75 764.98 C 422.37 765.24 421.63 765.77 421.26 766.03 C 417.28 766.24 412.98 765.13 409.26 767.00 L 356.27 767.00 C 351.70 765.11 346.64 766.84 342.04 765.19 C 339.61 765.02 337.17 764.98 334.73 764.98 C 334.37 764.73 333.63 764.23 333.26 763.98 C 331.41 763.99 329.57 764.00 327.73 764.02 C 327.36 763.76 326.63 763.24 326.27 762.98 C 324.42 762.98 322.57 763.00 320.74 763.02 C 320.37 762.76 319.63 762.24 319.26 761.98 C 317.75 761.98 316.23 762.00 314.73 762.02 C 314.36 761.76 313.63 761.24 313.27 760.98 C 312.39 760.99 310.62 761.01 309.74 761.02 C 309.37 760.76 308.63 760.24 308.27 759.98 C 307.39 759.99 305.64 760.00 304.76 760.00 C 304.40 759.79 303.66 759.38 303.29 759.18 C 300.79 758.82 298.31 758.35 295.85 757.79 C 293.95 757.23 292.04 756.75 290.14 756.25 C 287.46 755.64 284.80 754.98 282.14 754.29 C 262.13 748.85 242.55 741.84 223.65 733.30 C 217.46 730.15 210.77 728.00 204.97 724.09 C 177.64 710.34 152.53 692.47 129.39 672.53 C 125.82 669.84 123.17 666.15 119.60 663.47 C 115.56 660.54 112.34 656.69 108.74 653.26 C 104.19 649.12 100.93 643.79 96.24 639.77 C 76.79 617.65 59.29 593.68 45.34 567.69 C 42.40 561.16 38.00 555.38 35.62 548.58 C 23.28 522.84 14.01 495.64 7.80 467.78 C 7.65 467.39 7.37 466.63 7.23 466.25 C 6.93 464.51 6.63 462.78 6.26 461.06 C 6.19 460.23 6.03 458.56 5.96 457.72 C 5.71 457.36 5.23 456.63 4.99 456.27 C 5.00 455.38 5.01 453.62 5.02 452.73 C 4.76 452.37 4.24 451.63 3.98 451.27 C 3.99 449.75 4.01 448.24 4.02 446.74 C 3.76 446.36 3.24 445.62 2.98 445.25 C 2.99 443.40 3.01 441.56 3.02 439.73 C 2.76 439.36 2.24 438.64 1.98 438.27 C 1.99 436.42 2.01 434.57 2.02 432.73 C 1.76 432.37 1.25 431.64 0.99 431.27 C 0.95 428.26 1.54 425.03 0.00 422.26 L 0.00 345.26 C 1.11 342.20 1.14 338.93 1.01 335.73 C 1.26 335.36 1.77 334.63 2.02 334.26 C 2.00 332.41 1.99 330.57 1.98 328.73 C 2.24 328.36 2.76 327.63 3.02 327.27 C 3.01 325.42 2.99 323.57 2.98 321.73 C 3.24 321.37 3.76 320.64 4.02 320.27 C 4.01 318.76 3.99 317.25 3.98 315.74 C 4.24 315.37 4.76 314.63 5.02 314.26 C 5.01 313.38 4.99 311.61 4.98 310.73 C 5.24 310.36 5.76 309.63 6.02 309.26 C 6.01 308.38 5.99 306.61 5.98 305.73 C 6.23 305.37 6.73 304.65 6.98 304.28 C 7.03 303.44 7.13 301.74 7.18 300.89 C 10.57 288.38 13.25 275.66 17.69 263.45 C 23.19 245.62 30.86 228.56 38.64 211.63 C 44.64 201.27 49.73 190.38 56.39 180.39 C 63.26 168.84 71.38 158.10 79.47 147.39 C 86.28 138.93 92.96 130.31 100.75 122.72 C 106.97 115.02 114.03 107.96 121.73 101.74 C 129.83 93.47 139.01 86.36 148.08 79.18 C 165.90 65.41 184.84 53.03 204.97 42.91 C 210.78 38.99 217.47 36.84 223.67 33.69 C 241.38 25.67 259.71 19.05 278.41 13.73 C 285.52 11.68 292.80 10.27 299.89 8.16 C 300.74 8.11 302.43 8.02 303.27 7.98 C 303.64 7.73 304.38 7.23 304.74 6.98 C 305.63 6.99 307.39 7.01 308.27 7.02 C 308.64 6.76 309.37 6.24 309.74 5.98 C 310.62 5.99 312.39 6.01 313.27 6.02 C 313.64 5.76 314.37 5.24 314.73 4.98 C 316.24 4.99 317.75 5.01 319.26 5.02 C 319.63 4.76 320.37 4.24 320.74 3.98 C 322.58 3.99 324.42 4.01 326.27 4.02 C 326.63 3.76 327.37 3.24 327.73 2.98 C 329.57 2.99 331.42 3.01 333.27 3.02 C 333.64 2.76 334.37 2.24 334.74 1.98 C 337.24 1.99 339.76 2.01 342.27 2.02 C 342.64 1.76 343.37 1.23 343.73 0.97 C 347.71 0.76 352.01 1.87 355.74 0.00 Z" />
<path fill="#ffffff" d=" M 408.74 0.00 L 767.00 0.00 L 767.00 767.00 L 409.26 767.00 C 412.98 765.13 417.28 766.24 421.26 766.03 C 421.63 765.77 422.37 765.24 422.75 764.98 C 425.25 764.99 427.75 765.00 430.27 765.02 C 430.63 764.76 431.36 764.24 431.73 763.98 C 433.57 763.98 435.41 764.00 437.27 764.02 C 437.63 763.76 438.36 763.24 438.73 762.98 C 440.57 762.98 442.42 763.00 444.27 763.02 C 444.63 762.76 445.36 762.24 445.73 761.98 C 447.24 761.98 448.75 762.00 450.26 762.02 C 450.63 761.76 451.37 761.24 451.74 760.98 C 452.62 760.99 454.39 761.01 455.27 761.02 C 455.63 760.76 456.36 760.24 456.73 759.99 C 457.60 759.99 459.36 760.00 460.24 760.00 C 460.60 759.79 461.34 759.38 461.70 759.18 C 466.17 758.66 470.51 757.40 474.85 756.24 C 476.95 755.75 479.04 755.23 481.15 754.77 C 497.84 750.26 514.28 744.77 530.23 738.11 C 538.08 735.31 545.30 731.10 553.03 728.03 C 563.67 722.00 574.75 716.71 585.01 709.99 C 600.55 700.61 614.99 689.53 629.10 678.13 C 633.42 674.11 638.29 670.69 642.22 666.25 C 650.00 659.73 657.49 652.74 663.81 644.77 C 674.37 634.21 683.52 622.34 692.46 610.40 C 702.59 596.86 711.62 582.52 719.68 567.66 C 722.49 561.32 726.79 555.75 729.13 549.18 C 735.39 535.68 741.42 522.03 745.89 507.82 C 751.01 493.09 755.25 478.01 758.18 462.70 C 758.39 462.33 758.79 461.60 759.00 461.24 C 758.99 460.36 758.99 458.61 758.99 457.73 C 759.24 457.37 759.76 456.64 760.02 456.27 C 760.01 455.39 759.99 453.62 759.98 452.73 C 760.24 452.37 760.76 451.63 761.02 451.27 C 761.00 449.75 760.98 448.24 760.98 446.74 C 761.24 446.36 761.76 445.62 762.02 445.25 C 762.00 443.41 761.98 441.57 761.98 439.74 C 762.24 439.37 762.76 438.63 763.02 438.26 C 763.00 436.42 762.98 434.58 762.98 432.74 C 763.24 432.37 763.76 431.63 764.02 431.26 C 764.00 428.75 763.99 426.24 763.98 423.73 C 764.24 423.37 764.76 422.64 765.02 422.27 C 765.00 418.75 764.99 415.24 764.98 411.73 C 765.24 411.36 765.76 410.63 766.02 410.26 C 765.99 392.42 765.99 374.58 766.02 356.73 C 765.76 356.37 765.24 355.63 764.98 355.27 C 764.99 351.75 765.00 348.24 765.02 344.73 C 764.76 344.37 764.24 343.64 763.98 343.27 C 763.99 340.76 764.00 338.24 764.02 335.73 C 763.76 335.37 763.24 334.64 762.98 334.27 C 762.98 332.43 763.00 330.59 763.02 328.75 C 762.76 328.38 762.24 327.64 761.98 327.27 C 761.98 325.42 762.00 323.57 762.02 321.73 C 761.76 321.36 761.24 320.62 760.98 320.26 C 760.98 318.74 761.00 317.23 761.02 315.73 C 760.76 315.37 760.24 314.64 759.98 314.28 C 759.99 313.39 760.01 311.63 760.02 310.74 C 759.76 310.38 759.24 309.64 758.98 309.28 C 758.99 308.39 759.01 306.62 759.02 305.74 C 758.77 305.37 758.27 304.64 758.02 304.27 C 757.98 303.43 757.89 301.74 757.84 300.90 C 756.29 295.60 755.04 290.22 753.75 284.85 C 747.66 262.33 739.88 240.22 729.72 219.20 C 727.25 212.12 722.76 206.06 719.65 199.29 C 706.47 174.78 690.18 152.03 672.01 130.99 C 668.54 126.47 663.89 123.02 660.64 118.31 C 655.27 112.70 649.97 106.94 643.79 102.20 C 640.97 99.73 638.62 96.74 635.61 94.47 C 614.16 75.99 591.04 59.29 566.00 45.99 C 561.72 44.10 557.84 41.46 553.70 39.30 C 543.77 34.89 533.92 30.27 523.85 26.18 C 509.84 20.90 495.63 16.08 481.15 12.25 C 477.70 11.45 474.29 10.53 470.84 9.75 C 468.93 9.22 467.02 8.71 465.12 8.16 C 464.27 8.11 462.57 8.02 461.72 7.98 C 461.36 7.73 460.63 7.23 460.26 6.98 C 459.38 6.99 457.61 7.01 456.73 7.02 C 456.36 6.76 455.63 6.24 455.26 5.98 C 454.38 5.99 452.61 6.01 451.73 6.02 C 451.36 5.76 450.63 5.24 450.27 4.98 C 448.76 4.99 447.25 5.00 445.75 5.01 C 445.38 4.77 444.64 4.28 444.28 4.04 C 442.49 3.98 440.72 3.91 438.95 3.79 C 436.62 3.05 434.16 2.92 431.73 2.92 C 431.36 2.69 430.60 2.22 430.23 1.99 C 427.73 1.99 425.22 2.00 422.73 2.02 C 422.36 1.76 421.63 1.23 421.27 0.97 C 417.08 1.00 412.76 1.47 408.74 0.00 Z" />
<path fill="#90cc97" d=" M 363.08 135.22 C 372.45 130.84 381.35 125.39 391.21 122.15 C 395.54 131.30 397.51 141.34 399.65 151.18 C 401.52 161.66 402.86 172.31 402.53 182.98 C 402.63 188.74 402.67 194.53 401.51 200.20 C 384.43 206.55 368.30 215.26 352.96 225.04 C 324.11 243.47 298.85 267.33 278.30 294.66 C 278.54 282.99 279.38 271.20 277.33 259.63 C 275.42 246.45 270.51 233.99 265.11 221.90 C 271.21 215.02 276.09 207.13 282.43 200.44 C 286.00 195.69 290.59 191.87 294.24 187.19 C 298.41 182.00 304.14 178.44 308.60 173.53 C 325.21 158.73 343.58 145.91 363.08 135.22 Z" />
<path fill="#5bbfb9" d=" M 206.10 172.17 C 208.14 168.96 209.97 165.55 212.75 162.90 C 231.16 176.07 246.76 193.07 258.67 212.30 C 260.70 215.53 262.58 218.87 264.08 222.39 C 233.73 265.29 216.16 317.04 213.11 369.46 C 210.19 364.26 207.30 359.04 203.91 354.13 C 194.40 340.15 181.76 328.45 167.56 319.34 C 165.68 318.14 163.55 317.41 161.46 316.67 L 161.47 316.62 C 162.20 314.50 162.52 312.29 162.43 310.05 C 164.79 261.36 180.01 213.36 206.10 172.17 Z" />
<path fill="#badb94" d=" M 412.66 196.56 C 445.10 185.01 479.66 179.60 514.07 180.32 C 530.67 180.91 547.21 182.77 563.53 185.87 C 559.13 206.29 550.77 225.88 539.25 243.30 C 536.34 248.24 532.13 252.31 529.64 257.50 L 529.61 257.54 C 527.22 256.73 524.81 255.96 522.34 255.47 C 481.60 248.08 439.27 249.56 399.19 260.03 C 390.86 261.97 382.87 265.06 374.61 267.25 C 378.36 261.22 383.06 255.81 386.48 249.57 C 390.83 241.62 394.87 233.43 397.52 224.74 C 400.05 216.63 401.43 208.23 402.67 199.84 C 406.13 199.19 409.38 197.81 412.66 196.56 Z" />
<path fill="#c5deba" d=" M 352.96 225.04 C 368.30 215.26 384.43 206.55 401.51 200.20 L 402.67 199.84 C 401.43 208.23 400.05 216.63 397.52 224.74 C 394.87 233.43 390.83 241.62 386.48 249.57 C 383.06 255.81 378.36 261.22 374.61 267.25 C 382.87 265.06 390.86 261.97 399.19 260.03 C 439.27 249.56 481.60 248.08 522.34 255.47 C 524.81 255.96 527.22 256.73 529.61 257.54 C 514.36 276.97 492.62 291.08 468.97 298.01 C 468.62 298.05 467.92 298.14 467.58 298.19 C 446.19 292.58 424.05 290.89 402.04 290.00 C 381.11 290.62 360.15 292.35 339.65 296.80 C 339.33 297.84 339.02 298.88 338.71 299.93 C 324.58 303.60 310.90 309.12 298.18 316.31 C 285.93 323.19 275.03 332.21 265.13 342.11 C 264.06 343.32 263.00 344.63 261.35 345.05 C 261.96 342.45 262.91 339.94 264.11 337.56 C 268.43 328.70 271.97 319.43 274.21 309.82 C 275.29 305.41 275.92 300.90 277.10 296.52 C 277.48 295.89 277.88 295.27 278.30 294.66 C 298.85 267.33 324.11 243.47 352.96 225.04 Z" />
<path fill="#a4dad7" d=" M 264.08 222.39 L 265.11 221.90 C 270.51 233.99 275.42 246.45 277.33 259.63 C 279.38 271.20 278.54 282.99 278.30 294.66 C 277.88 295.27 277.48 295.89 277.10 296.52 C 270.69 306.31 263.93 315.90 258.40 326.25 C 245.61 348.97 236.32 373.57 230.17 398.89 C 229.14 403.31 227.83 407.68 227.37 412.21 C 227.67 412.57 228.26 413.30 228.56 413.67 L 228.91 414.09 C 226.79 424.23 227.09 434.61 227.25 444.91 C 226.89 458.84 229.82 472.66 233.85 485.94 C 234.93 489.79 236.93 493.37 237.41 497.39 C 236.14 496.40 234.51 495.64 233.95 494.01 C 223.31 468.23 216.58 440.86 213.76 413.12 C 212.48 398.62 211.80 383.98 213.11 369.46 C 216.16 317.04 233.73 265.29 264.08 222.39 Z" />
<path fill="#47c4d9" d=" M 529.61 257.54 L 529.64 257.50 C 568.99 265.57 606.51 282.33 638.90 306.09 C 650.74 314.75 662.11 324.19 672.22 334.84 C 657.97 349.06 640.75 360.04 622.59 368.57 C 616.80 371.37 610.54 372.95 604.64 375.45 C 574.54 344.58 537.09 321.07 496.54 306.54 C 487.45 303.38 478.12 300.98 468.97 298.01 C 492.62 291.08 514.36 276.97 529.61 257.54 Z" />
<path fill="#a4dad7" d=" M 339.65 296.80 C 360.15 292.35 381.11 290.62 402.04 290.00 C 424.05 290.89 446.19 292.58 467.58 298.19 C 452.52 302.82 436.66 303.44 421.03 303.36 C 454.53 312.41 485.98 328.54 513.71 349.30 C 525.68 358.66 537.57 368.36 547.55 379.86 C 532.19 377.45 517.47 371.75 504.00 364.05 C 497.30 360.37 491.20 355.74 484.78 351.61 C 481.56 349.05 479.12 345.66 476.20 342.78 C 468.87 335.71 461.57 328.55 453.10 322.82 C 438.03 312.19 420.92 304.33 402.86 300.45 C 395.59 299.36 388.42 297.49 381.05 297.30 C 366.92 295.33 352.62 297.31 338.71 299.93 C 339.02 298.88 339.33 297.84 339.65 296.80 Z" />
<path fill="#47c4d9" d=" M 85.05 295.29 C 96.13 295.92 107.20 297.27 118.00 299.89 C 133.08 303.69 148.05 308.61 161.47 316.62 L 161.46 316.67 C 160.21 325.74 161.42 334.88 161.94 343.96 C 165.05 391.92 180.67 438.97 206.70 479.37 C 227.76 512.04 255.55 540.44 288.01 561.86 C 288.62 561.68 289.85 561.33 290.46 561.15 L 290.99 561.00 C 313.99 575.75 341.12 585.13 368.63 584.50 C 368.64 585.18 368.68 586.52 368.69 587.19 C 363.16 586.38 357.56 586.44 351.99 586.32 C 310.27 583.83 269.16 571.73 232.60 551.49 C 180.90 523.07 138.48 478.17 113.07 424.93 C 104.88 408.02 98.59 390.22 93.76 372.08 C 87.74 346.97 84.31 321.13 85.05 295.29 Z" />
<path fill="#ffffff" d=" M 258.40 326.25 C 263.93 315.90 270.69 306.31 277.10 296.52 C 275.92 300.90 275.29 305.41 274.21 309.82 C 271.97 319.43 268.43 328.70 264.11 337.56 C 262.91 339.94 261.96 342.45 261.35 345.05 L 261.22 345.53 C 254.34 355.68 246.63 365.37 241.44 376.56 C 235.22 388.18 231.54 400.90 228.56 413.67 C 228.26 413.30 227.67 412.57 227.37 412.21 C 227.83 407.68 229.14 403.31 230.17 398.89 C 236.32 373.57 245.61 348.97 258.40 326.25 Z" />
<path fill="#7acdca" d=" M 467.58 298.19 C 467.92 298.14 468.62 298.05 468.97 298.01 C 478.12 300.98 487.45 303.38 496.54 306.54 C 537.09 321.07 574.54 344.58 604.64 375.45 L 603.73 375.86 C 586.12 381.97 567.03 382.58 548.65 380.34 C 571.48 404.67 590.40 432.75 603.60 463.43 C 611.62 481.40 617.26 500.35 621.69 519.50 C 621.35 519.51 620.68 519.53 620.34 519.53 C 589.57 515.40 560.16 499.73 540.46 475.56 C 529.75 462.78 522.11 447.76 516.14 432.26 C 514.82 428.16 514.59 423.81 513.31 419.70 C 510.73 411.06 509.26 402.12 506.31 393.58 C 502.14 381.34 496.52 369.56 489.18 358.89 C 487.48 356.61 485.56 354.41 484.78 351.61 C 491.20 355.74 497.30 360.37 504.00 364.05 C 517.47 371.75 532.19 377.45 547.55 379.86 C 537.57 368.36 525.68 358.66 513.71 349.30 C 485.98 328.54 454.53 312.41 421.03 303.36 C 436.66 303.44 452.52 302.82 467.58 298.19 Z" />
<path fill="#7acdca" d=" M 161.46 316.67 C 163.55 317.41 165.68 318.14 167.56 319.34 C 181.76 328.45 194.40 340.15 203.91 354.13 C 207.30 359.04 210.19 364.26 213.11 369.46 C 211.80 383.98 212.48 398.62 213.76 413.12 C 216.58 440.86 223.31 468.23 233.95 494.01 C 234.51 495.64 236.14 496.40 237.41 497.39 C 239.77 499.44 240.12 502.92 241.67 505.56 C 246.09 513.81 250.81 521.95 256.63 529.31 C 260.73 535.45 266.38 540.25 271.47 545.52 C 277.22 551.39 283.76 556.42 290.46 561.15 C 289.85 561.33 288.62 561.68 288.01 561.86 C 255.55 540.44 227.76 512.04 206.70 479.37 C 180.67 438.97 165.05 391.92 161.94 343.96 C 161.42 334.88 160.21 325.74 161.46 316.67 Z" />
<path fill="#5bbfb9" d=" M 548.65 380.34 C 567.03 382.58 586.12 381.97 603.73 375.86 C 641.50 413.30 667.53 462.08 679.25 513.86 C 679.58 515.46 679.81 517.09 680.08 518.72 C 660.80 522.12 641.04 522.39 621.69 519.50 C 617.26 500.35 611.62 481.40 603.60 463.43 C 590.40 432.75 571.48 404.67 548.65 380.34 Z" />
<path fill="#ffffff" d=" M 0.00 422.26 C 1.54 425.03 0.95 428.26 0.99 431.27 C 1.25 431.64 1.76 432.37 2.02 432.73 C 2.01 434.57 1.99 436.42 1.98 438.27 C 2.24 438.64 2.76 439.36 3.02 439.73 C 3.01 441.56 2.99 443.40 2.98 445.25 C 3.24 445.62 3.76 446.36 4.02 446.74 C 4.01 448.24 3.99 449.75 3.98 451.27 C 4.24 451.63 4.76 452.37 5.02 452.73 C 5.01 453.62 5.00 455.38 4.99 456.27 C 5.23 456.63 5.71 457.36 5.96 457.72 C 6.03 458.56 6.19 460.23 6.26 461.06 C 6.63 462.78 6.93 464.51 7.23 466.25 C 7.37 466.63 7.65 467.39 7.80 467.78 C 14.01 495.64 23.28 522.84 35.62 548.58 C 38.00 555.38 42.40 561.16 45.34 567.69 C 59.29 593.68 76.79 617.65 96.24 639.77 C 100.93 643.79 104.19 649.12 108.74 653.26 C 112.34 656.69 115.56 660.54 119.60 663.47 C 123.17 666.15 125.82 669.84 129.39 672.53 C 152.53 692.47 177.64 710.34 204.97 724.09 C 210.77 728.00 217.46 730.15 223.65 733.30 C 242.55 741.84 262.13 748.85 282.14 754.29 C 284.80 754.98 287.46 755.64 290.14 756.25 C 292.04 756.75 293.95 757.23 295.85 757.79 C 298.31 758.35 300.79 758.82 303.29 759.18 C 303.66 759.38 304.40 759.79 304.76 760.00 C 305.64 760.00 307.39 759.99 308.27 759.98 C 308.63 760.24 309.37 760.76 309.74 761.02 C 310.62 761.01 312.39 760.99 313.27 760.98 C 313.63 761.24 314.36 761.76 314.73 762.02 C 316.23 762.00 317.75 761.98 319.26 761.98 C 319.63 762.24 320.37 762.76 320.74 763.02 C 322.57 763.00 324.42 762.98 326.27 762.98 C 326.63 763.24 327.36 763.76 327.73 764.02 C 329.57 764.00 331.41 763.99 333.26 763.98 C 333.63 764.23 334.37 764.73 334.73 764.98 C 337.17 764.98 339.61 765.02 342.04 765.19 C 346.64 766.84 351.70 765.11 356.27 767.00 L 0.00 767.00 L 0.00 422.26 Z" />
<path fill="#90cc97" d=" M 516.14 432.26 C 522.11 447.76 529.75 462.78 540.46 475.56 C 560.16 499.73 589.57 515.40 620.34 519.53 C 622.85 533.20 624.97 547.00 625.56 560.90 C 626.75 571.88 626.75 583.03 625.51 594.00 C 625.21 606.16 623.31 618.23 621.25 630.21 C 620.12 635.35 619.46 640.65 617.49 645.56 C 601.87 640.52 586.39 634.54 572.53 625.62 C 559.21 617.70 547.16 607.68 537.00 595.98 C 529.82 587.56 523.95 578.07 518.95 568.23 C 513.91 556.35 509.81 543.88 508.46 531.00 C 506.24 514.08 507.44 496.89 510.43 480.14 C 512.36 471.17 514.53 462.22 515.08 453.03 C 516.35 446.16 514.89 439.13 516.14 432.26 Z" />
</svg>
