<?xml version="1.0" standalone="no"?>
<!DOCTYPE svg PUBLIC "-//W3C//DTD SVG 20010904//EN"
 "http://www.w3.org/TR/2001/REC-SVG-20010904/DTD/svg10.dtd">
<svg version="1.0" xmlns="http://www.w3.org/2000/svg"
 width="16.000000pt" height="16.000000pt" viewBox="0 0 16.000000 16.000000"
 preserveAspectRatio="xMidYMid meet">
<metadata>
Created by potrace 1.11, written by Peter Selinger 2001-2013
</metadata>
<g transform="translate(0.000000,16.000000) scale(0.000860,-0.000860)"
fill="#000000" stroke="none">
<path d="M9325 14991 c-237 -97 -579 -271 -840 -429 -645 -390 -1236 -919
-1691 -1511 -43 -56 -83 -101 -90 -101 -8 0 -37 35 -65 78 -225 335 -503 646
-788 883 -110 91 -189 139 -230 139 -14 0 -48 16 -75 35 -27 19 -54 35 -60 35
-15 0 -191 -275 -299 -465 -448 -791 -696 -1596 -797 -2581 -11 -107 -24 -204
-30 -214 -17 -32 -60 -25 -193 31 -244 103 -644 220 -917 269 -131 23 -312 46
-446 56 l-91 6 -6 -38 c-17 -102 -19 -523 -3 -716 113 -1375 630 -2614 1525
-3653 125 -146 415 -439 572 -579 858 -766 1902 -1283 3019 -1496 320 -61 616
-92 895 -94 168 -1 183 0 226 22 48 23 69 54 69 101 0 32 -36 76 -75 91 -15 6
-25 17 -25 29 0 24 -18 28 -185 35 -353 17 -682 103 -1022 270 -242 119 -426
239 -628 407 -466 391 -816 947 -965 1534 -79 310 -105 548 -97 903 5 266 19
368 87 629 81 313 212 602 417 923 130 204 204 299 340 436 303 306 620 511
1119 723 268 114 649 183 1004 184 203 0 346 -13 590 -54 319 -53 482 -106
772 -251 314 -157 572 -348 883 -654 156 -153 334 -406 460 -654 129 -256 176
-388 285 -812 64 -244 82 -332 91 -430 18 -209 -1 -444 -61 -738 -116 -569
-142 -1016 -85 -1440 136 -1002 772 -1815 1807 -2309 146 -70 378 -162 502
-200 89 -27 174 -27 227 -1 78 40 115 138 168 440 117 669 129 1318 37 1995
-23 168 -22 204 6 221 7 5 184 9 393 9 618 1 764 35 806 187 16 60 0 155 -66
397 -110 401 -245 756 -431 1131 -144 290 -224 431 -389 680 -151 229 -293
418 -465 620 -72 85 -136 166 -141 179 -15 38 11 64 108 107 322 143 563 282
833 482 279 206 350 286 350 394 0 76 -39 137 -157 246 -323 297 -659 549
-1028 771 -493 296 -986 511 -1526 665 -87 24 -171 52 -188 60 -50 27 -42 55
59 212 188 290 367 682 465 1017 42 144 48 232 20 290 -36 77 -122 117 -320
151 -194 33 -421 62 -615 77 -201 16 -712 16 -910 0 -517 -41 -1001 -137
-1478 -292 -68 -23 -127 -38 -130 -34 -4 4 -10 106 -14 228 -7 244 -16 337
-53 563 -41 247 -120 545 -171 645 -30 60 -83 106 -138 120 -34 8 -47 18 -56
40 -7 16 -15 29 -19 28 -3 0 -37 -13 -76 -28z"/>
<path d="M18252 9960 c0 -14 2 -19 5 -12 2 6 2 18 0 25 -3 6 -5 1 -5 -13z"/>
<path d="M18263 9765 c0 -38 2 -53 4 -32 2 20 2 52 0 70 -2 17 -4 1 -4 -38z"/>
<path d="M18268 9300 c-8 -354 -25 -631 -59 -920 -183 -1593 -785 -3102 -1748
-4384 -431 -574 -947 -1115 -1496 -1566 -1221 -1004 -2678 -1669 -4229 -1930
-1495 -251 -3023 -129 -4446 355 -199 68 -490 180 -659 254 -52 22 -96 39 -98
37 -2 -2 70 -35 159 -74 800 -347 1604 -570 2438 -677 914 -116 1800 -98 2700
56 1826 312 3500 1179 4820 2499 1088 1086 1879 2433 2295 3908 227 804 343
1675 333 2507 l-3 270 -7 -335z"/>
<path d="M5450 1180 c19 -11 40 -19 45 -19 6 0 -6 8 -25 19 -19 11 -39 19 -45
19 -5 0 6 -8 25 -19z"/>
</g>
</svg>
