<?xml version="1.0" encoding="UTF-8" standalone="no"?>
<svg
   xmlns:dc="http://purl.org/dc/elements/1.1/"
   xmlns:cc="http://creativecommons.org/ns#"
   xmlns:rdf="http://www.w3.org/1999/02/22-rdf-syntax-ns#"
   xmlns:svg="http://www.w3.org/2000/svg"
   xmlns="http://www.w3.org/2000/svg"
   xmlns:sodipodi="http://sodipodi.sourceforge.net/DTD/sodipodi-0.dtd"
   xmlns:inkscape="http://www.inkscape.org/namespaces/inkscape"
   xml:space="preserve"
   height="60"
   width="60"
   version="1.1"
   viewBox="0 0 366.66666 60"
   id="svg2"
   inkscape:version="0.91 r13725"
   sodipodi:docname="feeljoy_edit.svg"
   inkscape:export-filename="C:\Users\Puranjay\Documents\Feeljoy\src\img\favicon-256x256-white.png"
   inkscape:export-xdpi="384"
   inkscape:export-ydpi="384"><metadata
     id="metadata299"><rdf:RDF><cc:Work
         rdf:about=""><dc:format>image/svg+xml</dc:format><dc:type
           rdf:resource="http://purl.org/dc/dcmitype/StillImage" /><dc:title></dc:title></cc:Work></rdf:RDF></metadata><sodipodi:namedview
     pagecolor="#ffffff"
     bordercolor="#666666"
     borderopacity="1"
     objecttolerance="10"
     gridtolerance="10"
     guidetolerance="10"
     inkscape:pageopacity="0"
     inkscape:pageshadow="2"
     inkscape:window-width="797"
     inkscape:window-height="480"
     id="namedview297"
     showgrid="false"
     inkscape:zoom="4.5384615"
     inkscape:cx="26"
     inkscape:cy="26"
     inkscape:window-x="412"
     inkscape:window-y="155"
     inkscape:window-maximized="0"
     inkscape:current-layer="svg2"
     showguides="true" /><defs
     id="defs4"><linearGradient
       id="y"
       y2="221"
       gradientUnits="userSpaceOnUse"
       x2="232"
       gradientTransform="matrix(0.834,0.551,-0.551,0.834,169.67868,54.449999)"
       y1="221"
       x1="83.099998"><stop
         style="stop-color:#fff"
         offset="0"
         id="stop7" /><stop
         style="stop-color:#3CBB97"
         offset="0.7"
         id="stop9" /></linearGradient><linearGradient
       id="n"
       y2="206"
       gradientUnits="userSpaceOnUse"
       x2="213"
       gradientTransform="translate(37.078675,146.85)"
       y1="206"
       x1="64.400002"><stop
         style="stop-color:#fff"
         offset="0"
         id="stop12" /><stop
         style="stop-color:#3CBB97"
         offset="0.7"
         id="stop14" /></linearGradient><linearGradient
       id="g"
       y2="234"
       gradientUnits="userSpaceOnUse"
       x2="213"
       gradientTransform="translate(37.078675,146.85)"
       y1="234"
       x1="64.400002"><stop
         style="stop-color:#fff"
         offset="0"
         id="stop17" /><stop
         style="stop-color:#3CBB97"
         offset="0.7"
         id="stop19" /></linearGradient><linearGradient
       id="f"
       y2="234"
       gradientUnits="userSpaceOnUse"
       x2="213"
       gradientTransform="translate(37.078675,146.85)"
       y1="234"
       x1="64.400002"><stop
         style="stop-color:#fff"
         offset="0"
         id="stop22" /><stop
         style="stop-color:#3CBB97"
         offset="0.7"
         id="stop24" /></linearGradient><linearGradient
       id="e"
       y2="261"
       gradientUnits="userSpaceOnUse"
       x2="232"
       gradientTransform="matrix(0.834,0.551,-0.551,0.834,169.67868,54.449999)"
       y1="261"
       x1="83.099998"><stop
         style="stop-color:#fff"
         offset="0"
         id="stop27" /><stop
         style="stop-color:#3CBB97"
         offset="0.7"
         id="stop29" /></linearGradient><linearGradient
       id="d"
       y2="210"
       gradientUnits="userSpaceOnUse"
       x2="246"
       gradientTransform="matrix(0.393,0.92,-0.92,0.393,332.67868,51.349999)"
       y1="210"
       x1="96.699997"><stop
         style="stop-color:#fff"
         offset="0"
         id="stop32" /><stop
         style="stop-color:#3CBB97"
         offset="0.7"
         id="stop34" /></linearGradient><linearGradient
       id="c"
       y2="191"
       gradientUnits="userSpaceOnUse"
       x2="232"
       gradientTransform="matrix(0.834,0.551,-0.551,0.834,169.67868,54.449999)"
       y1="191"
       x1="83.099998"><stop
         style="stop-color:#fff"
         offset="0"
         id="stop37" /><stop
         style="stop-color:#3CBB97"
         offset="0.7"
         id="stop39" /></linearGradient><linearGradient
       id="b"
       y2="203"
       gradientUnits="userSpaceOnUse"
       x2="213"
       gradientTransform="translate(37.078675,146.85)"
       y1="203"
       x1="64.400002"><stop
         style="stop-color:#fff"
         offset="0"
         id="stop42" /><stop
         style="stop-color:#3CBB97"
         offset="0.7"
         id="stop44" /></linearGradient><linearGradient
       id="a"
       y2="245"
       gradientUnits="userSpaceOnUse"
       x2="232"
       gradientTransform="matrix(0.834,0.551,-0.551,0.834,169.67868,54.449999)"
       y1="245"
       x1="83.099998"><stop
         style="stop-color:#fff"
         offset="0"
         id="stop47" /><stop
         style="stop-color:#3CBB97"
         offset="0.7"
         id="stop49" /></linearGradient><linearGradient
       id="ai"
       y2="192"
       gradientUnits="userSpaceOnUse"
       x2="251"
       gradientTransform="matrix(-0.179,0.984,-0.984,-0.179,468.67868,137.85)"
       y1="192"
       x1="102"><stop
         style="stop-color:#fff"
         offset="0"
         id="stop52" /><stop
         style="stop-color:#3CBB97"
         offset="0.7"
         id="stop54" /></linearGradient><linearGradient
       id="ah"
       y2="179"
       gradientUnits="userSpaceOnUse"
       x2="245"
       gradientTransform="matrix(0.393,0.92,-0.92,0.393,332.67868,51.349999)"
       y1="179"
       x1="96.699997"><stop
         style="stop-color:#fff"
         offset="0"
         id="stop57" /><stop
         style="stop-color:#3CBB97"
         offset="0.7"
         id="stop59" /></linearGradient><linearGradient
       id="ag"
       y2="202"
       gradientUnits="userSpaceOnUse"
       x2="232"
       gradientTransform="matrix(0.834,0.551,-0.551,0.834,169.67868,54.449999)"
       y1="202"
       x1="83.099998"><stop
         style="stop-color:#fff"
         offset="0"
         id="stop62" /><stop
         style="stop-color:#3CBB97"
         offset="0.7"
         id="stop64" /></linearGradient><linearGradient
       id="af"
       y2="233"
       gradientUnits="userSpaceOnUse"
       x2="245"
       gradientTransform="matrix(0.393,0.92,-0.92,0.393,332.67868,51.349999)"
       y1="233"
       x1="96.699997"><stop
         style="stop-color:#fff"
         offset="0"
         id="stop67" /><stop
         style="stop-color:#3CBB97"
         offset="0.7"
         id="stop69" /></linearGradient><linearGradient
       id="ae"
       y2="173"
       gradientUnits="userSpaceOnUse"
       x2="246"
       gradientTransform="matrix(-0.692,0.722,-0.722,-0.692,535.67868,284.85)"
       y1="173"
       x1="97.400002"><stop
         style="stop-color:#fff"
         offset="0"
         id="stop72" /><stop
         style="stop-color:#3CBB97"
         offset="0.7"
         id="stop74" /></linearGradient><linearGradient
       id="ad"
       y2="161"
       gradientUnits="userSpaceOnUse"
       x2="251"
       gradientTransform="matrix(-0.179,0.984,-0.984,-0.179,468.67868,137.85)"
       y1="161"
       x1="102"><stop
         style="stop-color:#fff"
         offset="0"
         id="stop77" /><stop
         style="stop-color:#3CBB97"
         offset="0.7"
         id="stop79" /></linearGradient><linearGradient
       id="ac"
       y2="191"
       gradientUnits="userSpaceOnUse"
       x2="245"
       gradientTransform="matrix(0.393,0.92,-0.92,0.393,332.67868,51.349999)"
       y1="191"
       x1="96.699997"><stop
         style="stop-color:#fff"
         offset="0"
         id="stop82" /><stop
         style="stop-color:#3CBB97"
         offset="0.7"
         id="stop84" /></linearGradient><linearGradient
       id="ab"
       y2="215"
       gradientUnits="userSpaceOnUse"
       x2="251"
       gradientTransform="matrix(-0.179,0.984,-0.984,-0.179,468.67868,137.85)"
       y1="215"
       x1="102"><stop
         style="stop-color:#fff"
         offset="0"
         id="stop87" /><stop
         style="stop-color:#3CBB97"
         offset="0.7"
         id="stop89" /></linearGradient><linearGradient
       id="aa"
       y2="160"
       gradientUnits="userSpaceOnUse"
       x2="232"
       gradientTransform="matrix(-0.975,0.221,-0.221,-0.975,510.67868,444.85)"
       y1="160"
       x1="83.400002"><stop
         style="stop-color:#fff"
         offset="0"
         id="stop92" /><stop
         style="stop-color:#3CBB97"
         offset="0.7"
         id="stop94" /></linearGradient><linearGradient
       id="z"
       y2="164"
       gradientUnits="userSpaceOnUse"
       x2="246"
       gradientTransform="matrix(-0.692,0.722,-0.722,-0.692,535.67868,284.85)"
       y1="164"
       x1="97.400002"><stop
         style="stop-color:#fff"
         offset="0"
         id="stop97" /><stop
         style="stop-color:#3CBB97"
         offset="0.7"
         id="stop99" /></linearGradient><linearGradient
       id="x"
       y2="192"
       gradientUnits="userSpaceOnUse"
       x2="232"
       gradientTransform="matrix(-0.975,0.221,-0.221,-0.975,510.67868,444.85)"
       y1="192"
       x1="83.5"><stop
         style="stop-color:#fff"
         offset="0"
         id="stop102" /><stop
         style="stop-color:#3CBB97"
         offset="0.7"
         id="stop104" /></linearGradient><linearGradient
       id="w"
       y2="141"
       gradientUnits="userSpaceOnUse"
       x2="246"
       gradientTransform="matrix(-0.692,0.722,-0.722,-0.692,535.67868,284.85)"
       y1="141"
       x1="97.400002"><stop
         style="stop-color:#fff"
         offset="0"
         id="stop107" /><stop
         style="stop-color:#3CBB97"
         offset="0.7"
         id="stop109" /></linearGradient><linearGradient
       id="v"
       y2="173"
       gradientUnits="userSpaceOnUse"
       x2="251"
       gradientTransform="matrix(-0.179,0.984,-0.984,-0.179,468.67868,137.85)"
       y1="173"
       x1="102"><stop
         style="stop-color:#fff"
         offset="0"
         id="stop112" /><stop
         style="stop-color:#3CBB97"
         offset="0.7"
         id="stop114" /></linearGradient><linearGradient
       id="u"
       y2="197"
       gradientUnits="userSpaceOnUse"
       x2="246"
       gradientTransform="matrix(-0.692,0.722,-0.722,-0.692,535.67868,284.85)"
       y1="197"
       x1="97.400002"><stop
         style="stop-color:#fff"
         offset="0"
         id="stop117" /><stop
         style="stop-color:#3CBB97"
         offset="0.7"
         id="stop119" /></linearGradient><linearGradient
       id="t"
       y2="-472"
       gradientUnits="userSpaceOnUse"
       x2="213"
       gradientTransform="matrix(-0.976,-0.22,0.22,-0.976,580.67868,-132.15)"
       y1="-472"
       x1="64.199997"><stop
         style="stop-color:#fff"
         offset="0"
         id="stop122" /><stop
         style="stop-color:#3CBB97"
         offset="0.7"
         id="stop124" /></linearGradient><linearGradient
       id="s"
       y2="171"
       gradientUnits="userSpaceOnUse"
       x2="252"
       gradientTransform="matrix(-0.179,0.984,-0.984,-0.179,468.67868,137.85)"
       y1="171"
       x1="102"><stop
         style="stop-color:#fff"
         offset="0"
         id="stop127" /><stop
         style="stop-color:#3CBB97"
         offset="0.7"
         id="stop129" /></linearGradient><linearGradient
       id="r"
       y2="-472"
       gradientUnits="userSpaceOnUse"
       x2="213"
       gradientTransform="matrix(-0.976,-0.22,0.22,-0.976,580.67868,-132.15)"
       y1="-472"
       x1="64.199997"><stop
         style="stop-color:#fff"
         offset="0"
         id="stop132" /><stop
         style="stop-color:#3CBB97"
         offset="0.7"
         id="stop134" /></linearGradient><linearGradient
       id="q"
       y2="187"
       gradientUnits="userSpaceOnUse"
       x2="246"
       gradientTransform="matrix(-0.692,0.722,-0.722,-0.692,535.67868,284.85)"
       y1="187"
       x1="97.400002"><stop
         style="stop-color:#fff"
         offset="0"
         id="stop137" /><stop
         style="stop-color:#3CBB97"
         offset="0.7"
         id="stop139" /></linearGradient><linearGradient
       id="p"
       y2="-473"
       gradientUnits="userSpaceOnUse"
       x2="213"
       gradientTransform="matrix(-0.976,-0.22,0.22,-0.976,580.67868,-132.15)"
       y1="-473"
       x1="64.199997"><stop
         style="stop-color:#fff"
         offset="0"
         id="stop142" /><stop
         style="stop-color:#3CBB97"
         offset="0.7"
         id="stop144" /></linearGradient><linearGradient
       id="o"
       y2="170"
       gradientUnits="userSpaceOnUse"
       x2="251"
       gradientTransform="matrix(-0.179,0.984,-0.984,-0.179,468.67868,137.85)"
       y1="170"
       x1="102"><stop
         style="stop-color:#fff"
         offset="0"
         id="stop147" /><stop
         style="stop-color:#3CBB97"
         offset="0.7"
         id="stop149" /></linearGradient><linearGradient
       id="m"
       y2="195"
       gradientUnits="userSpaceOnUse"
       x2="246"
       gradientTransform="matrix(-0.692,0.722,-0.722,-0.692,535.67868,284.85)"
       y1="195"
       x1="97.5"><stop
         style="stop-color:#fff"
         offset="0"
         id="stop152" /><stop
         style="stop-color:#3CBB97"
         offset="0.7"
         id="stop154" /></linearGradient><linearGradient
       id="l"
       y2="-472"
       gradientUnits="userSpaceOnUse"
       x2="213"
       gradientTransform="matrix(-0.976,-0.22,0.22,-0.976,580.67868,-132.15)"
       y1="-472"
       x1="64.099998"><stop
         style="stop-color:#fff"
         offset="0"
         id="stop157" /><stop
         style="stop-color:#3CBB97"
         offset="0.7"
         id="stop159" /></linearGradient><linearGradient
       id="k"
       y2="129"
       gradientUnits="userSpaceOnUse"
       x2="232"
       gradientTransform="matrix(-0.975,0.221,-0.221,-0.975,510.67868,444.85)"
       y1="129"
       x1="83.400002"><stop
         style="stop-color:#fff"
         offset="0"
         id="stop162" /><stop
         style="stop-color:#3CBB97"
         offset="0.7"
         id="stop164" /></linearGradient><linearGradient
       id="j"
       y2="154"
       gradientUnits="userSpaceOnUse"
       x2="246"
       gradientTransform="matrix(-0.692,0.722,-0.722,-0.692,535.67868,284.85)"
       y1="154"
       x1="97.400002"><stop
         style="stop-color:#fff"
         offset="0"
         id="stop167" /><stop
         style="stop-color:#3CBB97"
         offset="0.7"
         id="stop169" /></linearGradient><linearGradient
       id="i"
       y2="185"
       gradientUnits="userSpaceOnUse"
       x2="232"
       gradientTransform="matrix(-0.975,0.221,-0.221,-0.975,510.67868,444.85)"
       y1="185"
       x1="83.400002"><stop
         style="stop-color:#fff"
         offset="0"
         id="stop172" /><stop
         style="stop-color:#3CBB97"
         offset="0.7"
         id="stop174" /></linearGradient><linearGradient
       id="h"
       y2="167"
       gradientUnits="userSpaceOnUse"
       x2="251"
       gradientTransform="matrix(-0.179,0.984,-0.984,-0.179,468.67868,137.85)"
       y1="167"
       x1="102"><stop
         style="stop-color:#fff"
         offset="0"
         id="stop177" /><stop
         style="stop-color:#3CBB97"
         offset="0.7"
         id="stop179" /></linearGradient></defs><rect
     style="color:#000000;clip-rule:nonzero;display:inline;overflow:visible;visibility:visible;opacity:1;isolation:auto;mix-blend-mode:normal;color-interpolation:sRGB;color-interpolation-filters:linearRGB;solid-color:#000000;solid-opacity:1;fill:#ffffff;fill-opacity:0.9921568;fill-rule:evenodd;stroke:none;stroke-width:8;stroke-linecap:round;stroke-linejoin:round;stroke-miterlimit:4;stroke-dasharray:none;stroke-dashoffset:0;stroke-opacity:1;color-rendering:auto;image-rendering:auto;shape-rendering:auto;text-rendering:auto;enable-background:accumulate"
     id="rect8359"
     width="366.66666"
     height="366.66666"
     x="2.8421709e-014"
     y="-153.33333"
     ry="35.009411" /><g
     transform="translate(-37.078675,-146.85)"
     id="g181"><path
       style="fill:#46c4d9"
       d="m 168,266 c 0.226,0.175 0.46,0.344 0.688,0.517 0.455,0.345 0.909,0.692 1.38,1.03 0.7,0.507 1.41,1 2.13,1.49 l -0.691,1.04 c -44,-29 -68,-78 -66,-128 -20,-11 -40.6,-11 -40.6,-11 -0.021,1.04 -0.133,2.07 -0.133,3.11 0,82 66.7,149 149,149 l 0,-1.25 c -41,-0.335 -74,-33.6 -74,-74.7 0,-1.97 -0.007,-3.88 -0.103,-5.75 -1.82,24.3 8.37,48.9 28.7,64.6 z"
       id="path183"
       inkscape:connector-curvature="0" /><path
       style="fill:url(#y)"
       d="m 139,202 c 0.937,-12.2 4.9,-24.4 12.2,-35.4 1.1,-1.67 2.14,-3.33 3.1,-4.97 -8.62,11.1 -14,24.5 -15.4,38.5 0.044,0.625 0.083,1.26 0.117,1.89 z"
       id="path185"
       inkscape:connector-curvature="0" /><path
       style="fill:#5cbfb8"
       d="m 132,171 c 1.49,-28 10.9,-55.1 26.9,-78 -10.2,-20 -27.4,-31.4 -27.4,-31.4 -0.589,0.854 -1.18,1.71 -1.75,2.58 -16,24.2 -24,51.3 -24.7,78.2 10.3,5.86 20.4,14.8 27,28.5 z"
       id="path187"
       inkscape:connector-curvature="0" /><path
       style="fill:url(#n)"
       d="m 144,236 -1.15,0.492 c -9,-21 -13,-44 -11,-65 -6.57,-13.7 -16.6,-22.6 -27,-28.5 -1.32,49.7 22.2,98.9 66.5,128 l 0.691,-1.04 c -0.722,-0.485 -1.43,-0.98 -2.13,-1.49 -0.466,-0.337 -0.919,-0.685 -1.38,-1.03 -0.228,-0.173 -0.462,-0.342 -0.688,-0.517 -20.3,-15.8 -30.5,-40.4 -28.6,-64.7 0.002,0.038 0.002,0.077 0.004,0.113 0.003,-0.038 0.004,-0.075 0.007,-0.113 -0.034,-0.637 -0.073,-1.27 -0.117,-1.89 -1.2,11.9 0.471,24.3 5.4,36.1 z"
       id="path189"
       inkscape:connector-curvature="0" /><path
       style="fill:#7ecdc5"
       d="m 144,236 -1.15,0.492 c -9,-21 -13,-44 -11,-65 -6.57,-13.7 -16.6,-22.6 -27,-28.5 -1.32,49.7 22.2,98.9 66.5,128 l 0.691,-1.04 c -0.722,-0.485 -1.43,-0.98 -2.13,-1.49 -0.466,-0.337 -0.919,-0.685 -1.38,-1.03 -0.228,-0.173 -0.462,-0.342 -0.688,-0.517 -20.3,-15.8 -30.5,-40.4 -28.6,-64.7 0.002,0.038 0.002,0.077 0.004,0.113 0.003,-0.038 0.004,-0.075 0.007,-0.113 -0.034,-0.637 -0.073,-1.27 -0.117,-1.89 -1.2,11.9 0.471,24.3 5.4,36.1 z"
       id="path191"
       inkscape:connector-curvature="0" /><path
       style="fill:none"
       d="m 168,267 c 0.455,0.345 0.909,0.692 1.38,1.03"
       id="path193"
       inkscape:connector-curvature="0" /><path
       style="fill:url(#g)"
       d="m 168,266 c -20.3,-15.8 -30.4,-40.3 -28.6,-64.6 -0.002,-0.036 -0.002,-0.075 -0.004,-0.113 -1.86,24.4 8.3,49 28.6,64.7 z"
       id="path195"
       inkscape:connector-curvature="0" /><path
       style="fill:url(#f)"
       d="m 168,266 c -20.3,-15.8 -30.4,-40.3 -28.6,-64.6 -0.002,-0.036 -0.002,-0.075 -0.004,-0.113 -1.86,24.4 8.3,49 28.6,64.7 z"
       id="path197"
       inkscape:connector-curvature="0" /><path
       style="fill:url(#e)"
       d="m 168,266 c -20.3,-15.8 -30.4,-40.3 -28.6,-64.6 -0.002,-0.036 -0.002,-0.075 -0.004,-0.113 -1.86,24.4 8.3,49 28.6,64.7 z"
       id="path199"
       inkscape:connector-curvature="0" /><path
       style="fill:none"
       d="m 168,266 c 0.226,0.175 0.46,0.344 0.688,0.517"
       id="path201"
       inkscape:connector-curvature="0" /><path
       style="fill:none"
       d="m 170,268 c 0.7,0.507 1.41,1 2.13,1.49"
       id="path203"
       inkscape:connector-curvature="0" /><path
       style="fill:url(#d)"
       d="m 155,160 c -0.31,0.548 -0.625,1.1 -0.949,1.65 7.53,-9.7 17.6,-17.7 29.7,-22.8 1.85,-0.789 3.62,-1.61 5.34,-2.45 -13.3,4.52 -25.2,12.7 -34,23.6 z"
       id="path205"
       inkscape:connector-curvature="0" /><path
       style="fill:#91cd95"
       d="m 165,131 c 16.7,-22.6 39.4,-40 65.4,-50.2 2.51,-22.3 -5.56,-41.3 -5.56,-41.3 -0.96,0.387 -1.92,0.778 -2.88,1.19 -26.6,11.4 -48.3,29.6 -63.7,51.7 5.4,10.6 8.85,23.6 6.79,38.6 z"
       id="path207"
       inkscape:connector-curvature="0" /><path
       style="fill:url(#c)"
       d="m 140,193 -2,0 c 4.28,-23 13.6,-43.7 26.7,-61.4 2.06,-15 -1.39,-28 -6.79,-38.6 -16,22.9 -25.4,49.9 -26.9,78 3.85,8.02 6.5,17.7 7.32,29.3 1.4,-14 6.75,-27.4 15.4,-38.5 0.325,-0.552 0.64,-1.1 0.949,-1.65 -7.57,9.3 -13,20.6 -15.4,33.1 z"
       id="path209"
       inkscape:connector-curvature="0" /><path
       style="fill:#a1d9d5"
       d="m 140,193 -2,0 c 4.28,-23 13.6,-43.7 26.7,-61.4 2.06,-15 -1.39,-28 -6.79,-38.6 -16,22.9 -25.4,49.9 -26.9,78 3.85,8.02 6.5,17.7 7.32,29.3 1.4,-14 6.75,-27.4 15.4,-38.5 0.325,-0.552 0.64,-1.1 0.949,-1.65 -7.57,9.3 -13,20.6 -15.4,33.1 z"
       id="path211"
       inkscape:connector-curvature="0" /><path
       style="fill:url(#b)"
       d="m 143,236 1.15,-0.492 c -4.93,-11.8 -6.6,-24.2 -5.4,-36.1 -0.82,-11.6 -3.48,-21.2 -7.32,-29.3 -1.16,21.9 2.49,44.4 11.6,65.9 z"
       id="path213"
       inkscape:connector-curvature="0" /><path
       style="fill:url(#a)"
       d="m 143,236 1.15,-0.492 c -4.93,-11.8 -6.6,-24.2 -5.4,-36.1 -0.82,-11.6 -3.48,-21.2 -7.32,-29.3 -1.16,21.9 2.49,44.4 11.6,65.9 z"
       id="path215"
       inkscape:connector-curvature="0" /><path
       style="fill:#b4e0da"
       d="m 143,236 1.15,-0.492 c -4.93,-11.8 -6.6,-24.2 -5.4,-36.1 -0.82,-11.6 -3.48,-21.2 -7.32,-29.3 -1.16,21.9 2.49,44.4 11.6,65.9 z"
       id="path217"
       inkscape:connector-curvature="0" /><path
       style="fill:url(#ai)"
       d="m 191,135 c -0.558,0.287 -1.12,0.57 -1.7,0.851 11.6,-3.94 24.4,-5.08 37.3,-2.72 1.79,0.326 3.54,0.603 5.26,0.832 l 0.016,-0.07 c -13.5,-3.42 -27.7,-3.05 -40.9,1.1 z"
       id="path219"
       inkscape:connector-curvature="0" /><path
       style="fill:#bbdb94"
       d="m 297,111 c 14.4,-17.2 18.1,-37.5 18.1,-37.5 -1.02,-0.207 -2.03,-0.411 -3.06,-0.596 -28.5,-5.19 -56.6,-1.92 -81.7,8 -1.33,11.8 -5.62,24.6 -15.6,36 26.4,-9.64 54.9,-11.6 82.2,-5.89 z"
       id="path221"
       inkscape:connector-curvature="0" /><path
       style="fill:url(#ah)"
       d="m 160,154 -0.905,-0.869 c 16.2,-16.8 35.5,-29 56.1,-36.5 10,-11.4 14.3,-24.2 15.6,-36 -25.9,10.3 -48.7,27.7 -65.4,50.2 -1.21,8.81 -4.31,18.3 -10,28.4 8.89,-10.9 20.7,-19.1 34,-23.6 0.572,-0.281 1.14,-0.564 1.7,-0.851 -11.4,3.59 -22.2,9.98 -31.1,19.2 z"
       id="path223"
       inkscape:connector-curvature="0" /><path
       style="fill:#b4dcb5"
       d="m 160,154 -0.905,-0.869 c 16.2,-16.8 35.5,-29 56.1,-36.5 10,-11.4 14.3,-24.2 15.6,-36 -25.9,10.3 -48.7,27.7 -65.4,50.2 -1.21,8.81 -4.31,18.3 -10,28.4 8.89,-10.9 20.7,-19.1 34,-23.6 0.572,-0.281 1.14,-0.564 1.7,-0.851 -11.4,3.59 -22.2,9.98 -31.1,19.2 z"
       id="path225"
       inkscape:connector-curvature="0" /><path
       style="fill:url(#ag)"
       d="m 140,193 c 2.4,-12.6 7.84,-23.8 15.4,-33.1 5.71,-10.1 8.8,-19.6 10,-28.4 -13,17.6 -22.4,38.4 -26.7,61.4 l 1.23,0.226 z"
       id="path227"
       inkscape:connector-curvature="0" /><path
       style="fill:url(#af)"
       d="m 140,193 c 2.4,-12.6 7.84,-23.8 15.4,-33.1 5.71,-10.1 8.8,-19.6 10,-28.4 -13,17.6 -22.4,38.4 -26.7,61.4 l 1.23,0.226 z"
       id="path229"
       inkscape:connector-curvature="0" /><path
       style="fill:#e3f1df"
       d="m 140,193 c 2.4,-12.6 7.84,-23.8 15.4,-33.1 5.71,-10.1 8.8,-19.6 10,-28.4 -13,17.6 -22.4,38.4 -26.7,61.4 l 1.23,0.226 z"
       id="path231"
       inkscape:connector-curvature="0" /><path
       style="fill:#46c4d9"
       d="m 264,132 c 27.3,6.49 52.2,20.6 71.9,40.4 21.5,-6.46 35.8,-21.3 35.8,-21.3 -0.733,-0.732 -1.47,-1.46 -2.22,-2.18 -20.9,-20 -46.1,-32.8 -72.5,-38.3 -7.61,9.12 -18.2,17.4 -32.9,21.4 z"
       id="path233"
       inkscape:connector-curvature="0" /><path
       style="fill:url(#ae)"
       d="m 250,141 c -4.36,-2.29 -9.02,-4.18 -13.9,-5.6 10.7,3.33 20.7,9.1 29.4,17.4 1.45,1.39 2.9,2.7 4.34,3.94 -5.68,-6.34 -12.4,-11.6 -19.8,-15.7 z"
       id="path235"
       inkscape:connector-curvature="0" /><path
       style="fill:url(#ad)"
       d="m 215,117 c -5.86,6.69 -13.7,12.9 -24,18.2 13.3,-4.15 27.5,-4.53 40.9,-1.1 l 0.06,-0.267 c -10.9,-2.74 -22.5,-3.08 -34.2,-0.535 l -0.277,-1.22 c 22.8,-5.08 45.6,-4.64 66.9,0.427 14.6,-4.01 25.3,-12.3 32.9,-21.4 -27.3,-5.73 -55.9,-3.74 -82.2,5.89 z"
       id="path237"
       inkscape:connector-curvature="0" /><path
       style="fill:#d4e7b6"
       d="m 215,117 c -5.86,6.69 -13.7,12.9 -24,18.2 13.3,-4.15 27.5,-4.53 40.9,-1.1 l 0.06,-0.267 c -10.9,-2.74 -22.5,-3.08 -34.2,-0.535 l -0.277,-1.22 c 22.8,-5.08 45.6,-4.64 66.9,0.427 14.6,-4.01 25.3,-12.3 32.9,-21.4 -27.3,-5.73 -55.9,-3.74 -82.2,5.89 z"
       id="path239"
       inkscape:connector-curvature="0" /><path
       style="fill:url(#ac)"
       d="m 215,117 c -20.6,7.52 -39.8,19.7 -56.1,36.5 l 0.905,0.869 c 8.94,-9.18 19.7,-15.6 31.1,-19.2 10.3,-5.31 18.2,-11.5 24,-18.2 z"
       id="path241"
       inkscape:connector-curvature="0" /><path
       style="fill:url(#ab)"
       d="m 215,117 c -20.6,7.52 -39.8,19.7 -56.1,36.5 l 0.905,0.869 c 8.94,-9.18 19.7,-15.6 31.1,-19.2 10.3,-5.31 18.2,-11.5 24,-18.2 z"
       id="path243"
       inkscape:connector-curvature="0" /><path
       style="fill:#e7f1d0"
       d="m 215,117 c -20.6,7.52 -39.8,19.7 -56.1,36.5 l 0.905,0.869 c 8.94,-9.18 19.7,-15.6 31.1,-19.2 10.3,-5.31 18.2,-11.5 24,-18.2 z"
       id="path245"
       inkscape:connector-curvature="0" /><path
       style="fill:#5cbfb8"
       d="m 376,248 c -0.208,-1.01 -0.42,-2.03 -0.65,-3.04 -6.41,-28.2 -20.4,-52.8 -39.4,-72 -8.9,2.67 -19,3.9 -29.9,2.05 19.4,20.2 33,45.7 38.7,73.4 17.2,2.77 31.3,-0.425 31.3,-0.425 z"
       id="path247"
       inkscape:connector-curvature="0" /><path
       style="fill:url(#aa)"
       d="m 269,156 c 8.19,9.15 14.2,20.4 17.2,33.3 0.762,3.35 1.64,6.52 2.61,9.52 -1.57,-15.3 -7.83,-29.5 -17.6,-41 -0.718,-0.585 -1.44,-1.19 -2.16,-1.81 z"
       id="path249"
       inkscape:connector-curvature="0" /><path
       style="fill:url(#z)"
       d="m 250,141 c 7.41,4.06 14.1,9.37 19.8,15.7 0.719,0.62 1.44,1.23 2.16,1.81 -6.06,-7.08 -13.5,-13.1 -21.9,-17.5 z"
       id="path251"
       inkscape:connector-curvature="0" /><path
       style="fill:url(#x)"
       d="m 250,141 c 7.41,4.06 14.1,9.37 19.8,15.7 0.719,0.62 1.44,1.23 2.16,1.81 -6.06,-7.08 -13.5,-13.1 -21.9,-17.5 z"
       id="path253"
       inkscape:connector-curvature="0" /><path
       style="fill:url(#w)"
       d="m 240,135 c 26.2,7.46 48.8,21.6 66.6,40.1 10.9,1.85 21,0.613 29.9,-2.05 -19.6,-19.8 -44.6,-33.9 -71.9,-40.4 -7.2,1.97 -15.4,2.91 -24.6,2.41 z"
       id="path255"
       inkscape:connector-curvature="0" /><path
       style="fill:#72cddc"
       d="m 240,135 c 26.2,7.46 48.8,21.6 66.6,40.1 10.9,1.85 21,0.613 29.9,-2.05 -19.6,-19.8 -44.6,-33.9 -71.9,-40.4 -7.2,1.97 -15.4,2.91 -24.6,2.41 z"
       id="path257"
       inkscape:connector-curvature="0" /><path
       style="fill:url(#v)"
       d="m 240,135 c 9.27,0.5 17.4,-0.44 24.6,-2.41 -21.3,-5.06 -44.1,-5.5 -66.9,-0.427 l 0.277,1.22 c 11.7,-2.55 23.3,-2.21 34.2,0.535 l 0.199,-0.879 c 2.57,0.589 5.1,1.24 7.61,1.96 z"
       id="path259"
       inkscape:connector-curvature="0" /><path
       style="fill:url(#u)"
       d="m 240,135 c 9.27,0.5 17.4,-0.44 24.6,-2.41 -21.3,-5.06 -44.1,-5.5 -66.9,-0.427 l 0.277,1.22 c 11.7,-2.55 23.3,-2.21 34.2,0.535 l 0.199,-0.879 c 2.57,0.589 5.1,1.24 7.61,1.96 z"
       id="path261"
       inkscape:connector-curvature="0" /><path
       style="fill:#a4dce8"
       d="m 240,135 c 9.27,0.5 17.4,-0.44 24.6,-2.41 -21.3,-5.06 -44.1,-5.5 -66.9,-0.427 l 0.277,1.22 c 11.7,-2.55 23.3,-2.21 34.2,0.535 l 0.199,-0.879 c 2.57,0.589 5.1,1.24 7.61,1.96 z"
       id="path263"
       inkscape:connector-curvature="0" /><path
       style="fill:url(#t)"
       d="m 232,134 -0.003,0.007 c 1.29,0.303 2.57,0.639 3.83,1 -1.09,-0.34 -2.18,-0.653 -3.28,-0.942 -0.182,-0.023 -0.36,-0.044 -0.541,-0.068 z"
       id="path265"
       inkscape:connector-curvature="0" /><path
       style="fill:#91cd95"
       d="m 289,199 c 0.806,7.85 0.372,16 -1.46,24.1 -16.9,74.7 56,91.1 56,91.1 0.25,-1.01 0.495,-2.01 0.725,-3.03 4.84,-21.5 4.8,-42.9 0.604,-63.1 -20.2,-3.25 -44.7,-14.7 -55.9,-49.1 z"
       id="path267"
       inkscape:connector-curvature="0" /><path
       style="fill:url(#s)"
       d="m 232,134 -0.016,0.07 c 0.182,0.024 0.359,0.045 0.541,0.069 C 232.35,134.092 232.176,134.045 232,134 Z"
       id="path269"
       inkscape:connector-curvature="0" /><path
       style="fill:url(#r)"
       d="m 232,134 -0.016,0.07 c 0.182,0.024 0.359,0.045 0.541,0.069 C 232.35,134.092 232.176,134.045 232,134 Z"
       id="path271"
       inkscape:connector-curvature="0" /><path
       style="fill:url(#q)"
       d="m 234,134 c -0.624,-0.068 -1.25,-0.144 -1.88,-0.224 1.1,0.289 2.19,0.602 3.28,0.942 4.9,1.42 9.55,3.31 13.9,5.6 -4.84,-2.65 -9.97,-4.78 -15.3,-6.32 z"
       id="path273"
       inkscape:connector-curvature="0" /><path
       style="fill:url(#p)"
       d="m 234,134 c -0.624,-0.068 -1.25,-0.144 -1.88,-0.224 1.1,0.289 2.19,0.602 3.28,0.942 4.9,1.42 9.55,3.31 13.9,5.6 -4.84,-2.65 -9.97,-4.78 -15.3,-6.32 z"
       id="path275"
       inkscape:connector-curvature="0" /><path
       style="fill:url(#o)"
       d="m 232,134 c 0.176,0.045 0.35,0.092 0.525,0.139 0.632,0.081 1.26,0.156 1.88,0.224 -0.777,-0.224 -1.56,-0.431 -2.35,-0.63 L 231.996,134 Z"
       id="path277"
       inkscape:connector-curvature="0" /><path
       style="fill:url(#m)"
       d="m 232,134 c 0.176,0.045 0.35,0.092 0.525,0.139 0.632,0.081 1.26,0.156 1.88,0.224 -0.777,-0.224 -1.56,-0.431 -2.35,-0.63 L 231.996,134 Z"
       id="path279"
       inkscape:connector-curvature="0" /><path
       style="fill:url(#l)"
       d="m 232,134 c 0.176,0.045 0.35,0.092 0.525,0.139 0.632,0.081 1.26,0.156 1.88,0.224 -0.777,-0.224 -1.56,-0.431 -2.35,-0.63 L 231.996,134 Z"
       id="path281"
       inkscape:connector-curvature="0" /><path
       style="fill:url(#k)"
       d="m 271,158 c 9.78,11.4 16,25.7 17.6,41 11.2,34.4 35.7,45.8 55.9,49.1 -5.74,-27.7 -19.3,-53.2 -38.7,-73.4 -11,-1.86 -22.8,-6.85 -34.8,-16.7 z"
       id="path283"
       inkscape:connector-curvature="0" /><path
       style="fill:#7ecdc5"
       d="m 271,158 c 9.78,11.4 16,25.7 17.6,41 11.2,34.4 35.7,45.8 55.9,49.1 -5.74,-27.7 -19.3,-53.2 -38.7,-73.4 -11,-1.86 -22.8,-6.85 -34.8,-16.7 z"
       id="path285"
       inkscape:connector-curvature="0" /><path
       style="fill:url(#j)"
       d="m 240,135 c -1.78,-0.096 -3.6,-0.247 -5.46,-0.451 5.34,1.54 10.5,3.66 15.3,6.32 8.48,4.45 15.9,10.4 21.9,17.5 12,9.81 23.8,14.8 34.8,16.7 -17.7,-18.5 -40.4,-32.6 -66.6,-40.1 z"
       id="path287"
       inkscape:connector-curvature="0" /><path
       style="fill:url(#i)"
       d="m 240,135 c -1.78,-0.096 -3.6,-0.247 -5.46,-0.451 5.34,1.54 10.5,3.66 15.3,6.32 8.48,4.45 15.9,10.4 21.9,17.5 12,9.81 23.8,14.8 34.8,16.7 -17.7,-18.5 -40.4,-32.6 -66.6,-40.1 z"
       id="path289"
       inkscape:connector-curvature="0" /><path
       style="fill:#afdeda"
       d="m 240,135 c -1.78,-0.096 -3.6,-0.247 -5.46,-0.451 5.34,1.54 10.5,3.66 15.3,6.32 8.48,4.45 15.9,10.4 21.9,17.5 12,9.81 23.8,14.8 34.8,16.7 -17.7,-18.5 -40.4,-32.6 -66.6,-40.1 z"
       id="path291"
       inkscape:connector-curvature="0" /><path
       style="fill:url(#h)"
       d="m 232,133 -0.199,0.879 c 0.787,0.199 1.57,0.406 2.35,0.63 1.86,0.205 3.68,0.355 5.46,0.451 -2.51,-0.714 -5.04,-1.37 -7.61,-1.96 z"
       id="path293"
       inkscape:connector-curvature="0" /><path
       style="fill:#a4dce8"
       d="m 232,133 -0.199,0.879 c 0.787,0.199 1.57,0.406 2.35,0.63 1.86,0.205 3.68,0.355 5.46,0.451 -2.51,-0.714 -5.04,-1.37 -7.61,-1.96 z"
       id="path295"
       inkscape:connector-curvature="0" /></g></svg>