<?xml version="1.0" encoding="UTF-8" standalone="no"?>
<svg xmlns:rdf="http://www.w3.org/1999/02/22-rdf-syntax-ns#" xmlns="http://www.w3.org/2000/svg" xml:space="preserve" height="52" width="52" version="1.1" xmlns:cc="http://creativecommons.org/ns#" xmlns:dc="http://purl.org/dc/elements/1.1/" viewBox="0 0 317.77777 52"><defs><linearGradient id="y" y2="221" gradientUnits="userSpaceOnUse" x2="232" gradientTransform="matrix(.834 .551 -.551 .834 194 58.6)" y1="221" x1="83.1"><stop style="stop-color:#fff" offset="0"/><stop style="stop-color:#3CBB97" offset="0.7"/></linearGradient><linearGradient id="n" y2="206" gradientUnits="userSpaceOnUse" x2="213" gradientTransform="translate(61.4 151)" y1="206" x1="64.4"><stop style="stop-color:#fff" offset="0"/><stop style="stop-color:#3CBB97" offset="0.7"/></linearGradient><linearGradient id="g" y2="234" gradientUnits="userSpaceOnUse" x2="213" gradientTransform="translate(61.4 151)" y1="234" x1="64.4"><stop style="stop-color:#fff" offset="0"/><stop style="stop-color:#3CBB97" offset="0.7"/></linearGradient><linearGradient id="f" y2="234" gradientUnits="userSpaceOnUse" x2="213" gradientTransform="translate(61.4 151)" y1="234" x1="64.4"><stop style="stop-color:#fff" offset="0"/><stop style="stop-color:#3CBB97" offset="0.7"/></linearGradient><linearGradient id="e" y2="261" gradientUnits="userSpaceOnUse" x2="232" gradientTransform="matrix(.834 .551 -.551 .834 194 58.6)" y1="261" x1="83.1"><stop style="stop-color:#fff" offset="0"/><stop style="stop-color:#3CBB97" offset="0.7"/></linearGradient><linearGradient id="d" y2="210" gradientUnits="userSpaceOnUse" x2="246" gradientTransform="matrix(.393 .920 -.920 .393 357 55.5)" y1="210" x1="96.7"><stop style="stop-color:#fff" offset="0"/><stop style="stop-color:#3CBB97" offset="0.7"/></linearGradient><linearGradient id="c" y2="191" gradientUnits="userSpaceOnUse" x2="232" gradientTransform="matrix(.834 .551 -.551 .834 194 58.6)" y1="191" x1="83.1"><stop style="stop-color:#fff" offset="0"/><stop style="stop-color:#3CBB97" offset="0.7"/></linearGradient><linearGradient id="b" y2="203" gradientUnits="userSpaceOnUse" x2="213" gradientTransform="translate(61.4 151)" y1="203" x1="64.4"><stop style="stop-color:#fff" offset="0"/><stop style="stop-color:#3CBB97" offset="0.7"/></linearGradient><linearGradient id="a" y2="245" gradientUnits="userSpaceOnUse" x2="232" gradientTransform="matrix(.834 .551 -.551 .834 194 58.6)" y1="245" x1="83.1"><stop style="stop-color:#fff" offset="0"/><stop style="stop-color:#3CBB97" offset="0.7"/></linearGradient><linearGradient id="ai" y2="192" gradientUnits="userSpaceOnUse" x2="251" gradientTransform="matrix(-.179 .984 -.984 -.179 493 142)" y1="192" x1="102"><stop style="stop-color:#fff" offset="0"/><stop style="stop-color:#3CBB97" offset="0.7"/></linearGradient><linearGradient id="ah" y2="179" gradientUnits="userSpaceOnUse" x2="245" gradientTransform="matrix(.393 .920 -.920 .393 357 55.5)" y1="179" x1="96.7"><stop style="stop-color:#fff" offset="0"/><stop style="stop-color:#3CBB97" offset="0.7"/></linearGradient><linearGradient id="ag" y2="202" gradientUnits="userSpaceOnUse" x2="232" gradientTransform="matrix(.834 .551 -.551 .834 194 58.6)" y1="202" x1="83.1"><stop style="stop-color:#fff" offset="0"/><stop style="stop-color:#3CBB97" offset="0.7"/></linearGradient><linearGradient id="af" y2="233" gradientUnits="userSpaceOnUse" x2="245" gradientTransform="matrix(.393 .920 -.920 .393 357 55.5)" y1="233" x1="96.7"><stop style="stop-color:#fff" offset="0"/><stop style="stop-color:#3CBB97" offset="0.7"/></linearGradient><linearGradient id="ae" y2="173" gradientUnits="userSpaceOnUse" x2="246" gradientTransform="matrix(-.692 .722 -.722 -.692 560 289)" y1="173" x1="97.4"><stop style="stop-color:#fff" offset="0"/><stop style="stop-color:#3CBB97" offset="0.7"/></linearGradient><linearGradient id="ad" y2="161" gradientUnits="userSpaceOnUse" x2="251" gradientTransform="matrix(-.179 .984 -.984 -.179 493 142)" y1="161" x1="102"><stop style="stop-color:#fff" offset="0"/><stop style="stop-color:#3CBB97" offset="0.7"/></linearGradient><linearGradient id="ac" y2="191" gradientUnits="userSpaceOnUse" x2="245" gradientTransform="matrix(.393 .920 -.920 .393 357 55.5)" y1="191" x1="96.7"><stop style="stop-color:#fff" offset="0"/><stop style="stop-color:#3CBB97" offset="0.7"/></linearGradient><linearGradient id="ab" y2="215" gradientUnits="userSpaceOnUse" x2="251" gradientTransform="matrix(-.179 .984 -.984 -.179 493 142)" y1="215" x1="102"><stop style="stop-color:#fff" offset="0"/><stop style="stop-color:#3CBB97" offset="0.7"/></linearGradient><linearGradient id="aa" y2="160" gradientUnits="userSpaceOnUse" x2="232" gradientTransform="matrix(-.975 .221 -.221 -.975 535 449)" y1="160" x1="83.4"><stop style="stop-color:#fff" offset="0"/><stop style="stop-color:#3CBB97" offset="0.7"/></linearGradient><linearGradient id="z" y2="164" gradientUnits="userSpaceOnUse" x2="246" gradientTransform="matrix(-.692 .722 -.722 -.692 560 289)" y1="164" x1="97.4"><stop style="stop-color:#fff" offset="0"/><stop style="stop-color:#3CBB97" offset="0.7"/></linearGradient><linearGradient id="x" y2="192" gradientUnits="userSpaceOnUse" x2="232" gradientTransform="matrix(-.975 .221 -.221 -.975 535 449)" y1="192" x1="83.5"><stop style="stop-color:#fff" offset="0"/><stop style="stop-color:#3CBB97" offset="0.7"/></linearGradient><linearGradient id="w" y2="141" gradientUnits="userSpaceOnUse" x2="246" gradientTransform="matrix(-.692 .722 -.722 -.692 560 289)" y1="141" x1="97.4"><stop style="stop-color:#fff" offset="0"/><stop style="stop-color:#3CBB97" offset="0.7"/></linearGradient><linearGradient id="v" y2="173" gradientUnits="userSpaceOnUse" x2="251" gradientTransform="matrix(-.179 .984 -.984 -.179 493 142)" y1="173" x1="102"><stop style="stop-color:#fff" offset="0"/><stop style="stop-color:#3CBB97" offset="0.7"/></linearGradient><linearGradient id="u" y2="197" gradientUnits="userSpaceOnUse" x2="246" gradientTransform="matrix(-.692 .722 -.722 -.692 560 289)" y1="197" x1="97.4"><stop style="stop-color:#fff" offset="0"/><stop style="stop-color:#3CBB97" offset="0.7"/></linearGradient><linearGradient id="t" y2="-472" gradientUnits="userSpaceOnUse" x2="213" gradientTransform="matrix(-.976 -.220 .220 -.976 605 -128)" y1="-472" x1="64.2"><stop style="stop-color:#fff" offset="0"/><stop style="stop-color:#3CBB97" offset="0.7"/></linearGradient><linearGradient id="s" y2="171" gradientUnits="userSpaceOnUse" x2="252" gradientTransform="matrix(-.179 .984 -.984 -.179 493 142)" y1="171" x1="102"><stop style="stop-color:#fff" offset="0"/><stop style="stop-color:#3CBB97" offset="0.7"/></linearGradient><linearGradient id="r" y2="-472" gradientUnits="userSpaceOnUse" x2="213" gradientTransform="matrix(-.976 -.220 .220 -.976 605 -128)" y1="-472" x1="64.2"><stop style="stop-color:#fff" offset="0"/><stop style="stop-color:#3CBB97" offset="0.7"/></linearGradient><linearGradient id="q" y2="187" gradientUnits="userSpaceOnUse" x2="246" gradientTransform="matrix(-.692 .722 -.722 -.692 560 289)" y1="187" x1="97.4"><stop style="stop-color:#fff" offset="0"/><stop style="stop-color:#3CBB97" offset="0.7"/></linearGradient><linearGradient id="p" y2="-473" gradientUnits="userSpaceOnUse" x2="213" gradientTransform="matrix(-.976 -.220 .220 -.976 605 -128)" y1="-473" x1="64.2"><stop style="stop-color:#fff" offset="0"/><stop style="stop-color:#3CBB97" offset="0.7"/></linearGradient><linearGradient id="o" y2="170" gradientUnits="userSpaceOnUse" x2="251" gradientTransform="matrix(-.179 .984 -.984 -.179 493 142)" y1="170" x1="102"><stop style="stop-color:#fff" offset="0"/><stop style="stop-color:#3CBB97" offset="0.7"/></linearGradient><linearGradient id="m" y2="195" gradientUnits="userSpaceOnUse" x2="246" gradientTransform="matrix(-.692 .722 -.722 -.692 560 289)" y1="195" x1="97.5"><stop style="stop-color:#fff" offset="0"/><stop style="stop-color:#3CBB97" offset="0.7"/></linearGradient><linearGradient id="l" y2="-472" gradientUnits="userSpaceOnUse" x2="213" gradientTransform="matrix(-.976 -.220 .220 -.976 605 -128)" y1="-472" x1="64.1"><stop style="stop-color:#fff" offset="0"/><stop style="stop-color:#3CBB97" offset="0.7"/></linearGradient><linearGradient id="k" y2="129" gradientUnits="userSpaceOnUse" x2="232" gradientTransform="matrix(-.975 .221 -.221 -.975 535 449)" y1="129" x1="83.4"><stop style="stop-color:#fff" offset="0"/><stop style="stop-color:#3CBB97" offset="0.7"/></linearGradient><linearGradient id="j" y2="154" gradientUnits="userSpaceOnUse" x2="246" gradientTransform="matrix(-.692 .722 -.722 -.692 560 289)" y1="154" x1="97.4"><stop style="stop-color:#fff" offset="0"/><stop style="stop-color:#3CBB97" offset="0.7"/></linearGradient><linearGradient id="i" y2="185" gradientUnits="userSpaceOnUse" x2="232" gradientTransform="matrix(-.975 .221 -.221 -.975 535 449)" y1="185" x1="83.4"><stop style="stop-color:#fff" offset="0"/><stop style="stop-color:#3CBB97" offset="0.7"/></linearGradient><linearGradient id="h" y2="167" gradientUnits="userSpaceOnUse" x2="251" gradientTransform="matrix(-.179 .984 -.984 -.179 493 142)" y1="167" x1="102"><stop style="stop-color:#fff" offset="0"/><stop style="stop-color:#3CBB97" offset="0.7"/></linearGradient></defs><g transform="translate(-61.4 -151)"><path style="fill:#46c4d9" d="m168 266c.226.175.46.344.688.517.455.345.909.692 1.38 1.03.7.507 1.41 1 2.13 1.49l-.691 1.04c-44-29-68-78-66-128-20-11-40.6-11-40.6-11-.021 1.04-.133 2.07-.133 3.11 0 82 66.7 149 149 149v-1.25c-41-.335-74-33.6-74-74.7 0-1.97-.007-3.88-.103-5.75-1.82 24.3 8.37 48.9 28.7 64.6z"/><path style="fill:url(#y)" d="m139 202c.937-12.2 4.9-24.4 12.2-35.4 1.1-1.67 2.14-3.33 3.1-4.97-8.62 11.1-14 24.5-15.4 38.5.044.625.083 1.26.117 1.89z"/><path style="fill:#5cbfb8" d="m132 171c1.49-28 10.9-55.1 26.9-78-10.2-20-27.4-31.4-27.4-31.4-.589.854-1.18 1.71-1.75 2.58-16 24.2-24 51.3-24.7 78.2 10.3 5.86 20.4 14.8 27 28.5z"/><path style="fill:url(#n)" d="m144 236-1.15.492c-9-21-13-44-11-65-6.57-13.7-16.6-22.6-27-28.5-1.32 49.7 22.2 98.9 66.5 128l.691-1.04c-.722-.485-1.43-.98-2.13-1.49-.466-.337-.919-.685-1.38-1.03-.228-.173-.462-.342-.688-.517-20.3-15.8-30.5-40.4-28.6-64.7.002.038.002.077.004.113.003-.038.004-.075.007-.113-.034-.637-.073-1.27-.117-1.89-1.2 11.9.471 24.3 5.4 36.1z"/><path style="fill:#7ecdc5" d="m144 236-1.15.492c-9-21-13-44-11-65-6.57-13.7-16.6-22.6-27-28.5-1.32 49.7 22.2 98.9 66.5 128l.691-1.04c-.722-.485-1.43-.98-2.13-1.49-.466-.337-.919-.685-1.38-1.03-.228-.173-.462-.342-.688-.517-20.3-15.8-30.5-40.4-28.6-64.7.002.038.002.077.004.113.003-.038.004-.075.007-.113-.034-.637-.073-1.27-.117-1.89-1.2 11.9.471 24.3 5.4 36.1z"/><path style="fill:none" d="m168 267c.455.345.909.692 1.38 1.03"/><path style="fill:url(#g)" d="m168 266c-20.3-15.8-30.4-40.3-28.6-64.6-.002-.036-.002-.075-.004-.113-1.86 24.4 8.3 49 28.6 64.7z"/><path style="fill:url(#f)" d="m168 266c-20.3-15.8-30.4-40.3-28.6-64.6-.002-.036-.002-.075-.004-.113-1.86 24.4 8.3 49 28.6 64.7z"/><path style="fill:url(#e)" d="m168 266c-20.3-15.8-30.4-40.3-28.6-64.6-.002-.036-.002-.075-.004-.113-1.86 24.4 8.3 49 28.6 64.7z"/><path style="fill:none" d="m168 266c.226.175.46.344.688.517"/><path style="fill:none" d="m170 268c.7.507 1.41 1 2.13 1.49"/><path style="fill:url(#d)" d="m155 160c-.31.548-.625 1.1-.949 1.65 7.53-9.7 17.6-17.7 29.7-22.8 1.85-.789 3.62-1.61 5.34-2.45-13.3 4.52-25.2 12.7-34 23.6z"/><path style="fill:#91cd95" d="m165 131c16.7-22.6 39.4-40 65.4-50.2 2.51-22.3-5.56-41.3-5.56-41.3-.96.387-1.92.778-2.88 1.19-26.6 11.4-48.3 29.6-63.7 51.7 5.4 10.6 8.85 23.6 6.79 38.6z"/><path style="fill:url(#c)" d="m140 193h-2c4.28-23 13.6-43.7 26.7-61.4 2.06-15-1.39-28-6.79-38.6-16 22.9-25.4 49.9-26.9 78 3.85 8.02 6.5 17.7 7.32 29.3 1.4-14 6.75-27.4 15.4-38.5.325-.552.64-1.1.949-1.65-7.57 9.3-13 20.6-15.4 33.1z"/><path style="fill:#a1d9d5" d="m140 193h-2c4.28-23 13.6-43.7 26.7-61.4 2.06-15-1.39-28-6.79-38.6-16 22.9-25.4 49.9-26.9 78 3.85 8.02 6.5 17.7 7.32 29.3 1.4-14 6.75-27.4 15.4-38.5.325-.552.64-1.1.949-1.65-7.57 9.3-13 20.6-15.4 33.1z"/><path style="fill:url(#b)" d="m143 236 1.15-.492c-4.93-11.8-6.6-24.2-5.4-36.1-.82-11.6-3.48-21.2-7.32-29.3-1.16 21.9 2.49 44.4 11.6 65.9z"/><path style="fill:url(#a)" d="m143 236 1.15-.492c-4.93-11.8-6.6-24.2-5.4-36.1-.82-11.6-3.48-21.2-7.32-29.3-1.16 21.9 2.49 44.4 11.6 65.9z"/><path style="fill:#b4e0da" d="m143 236 1.15-.492c-4.93-11.8-6.6-24.2-5.4-36.1-.82-11.6-3.48-21.2-7.32-29.3-1.16 21.9 2.49 44.4 11.6 65.9z"/><path style="fill:url(#ai)" d="m191 135c-.558.287-1.12.57-1.7.851 11.6-3.94 24.4-5.08 37.3-2.72 1.79.326 3.54.603 5.26.832l.016-.07c-13.5-3.42-27.7-3.05-40.9 1.1z"/><path style="fill:#bbdb94" d="m297 111c14.4-17.2 18.1-37.5 18.1-37.5-1.02-.207-2.03-.411-3.06-.596-28.5-5.19-56.6-1.92-81.7 8-1.33 11.8-5.62 24.6-15.6 36 26.4-9.64 54.9-11.6 82.2-5.89z"/><path style="fill:url(#ah)" d="m160 154-.905-.869c16.2-16.8 35.5-29 56.1-36.5 10-11.4 14.3-24.2 15.6-36-25.9 10.3-48.7 27.7-65.4 50.2-1.21 8.81-4.31 18.3-10 28.4 8.89-10.9 20.7-19.1 34-23.6.572-.281 1.14-.564 1.7-.851-11.4 3.59-22.2 9.98-31.1 19.2z"/><path style="fill:#b4dcb5" d="m160 154-.905-.869c16.2-16.8 35.5-29 56.1-36.5 10-11.4 14.3-24.2 15.6-36-25.9 10.3-48.7 27.7-65.4 50.2-1.21 8.81-4.31 18.3-10 28.4 8.89-10.9 20.7-19.1 34-23.6.572-.281 1.14-.564 1.7-.851-11.4 3.59-22.2 9.98-31.1 19.2z"/><path style="fill:url(#ag)" d="m140 193c2.4-12.6 7.84-23.8 15.4-33.1 5.71-10.1 8.8-19.6 10-28.4-13 17.6-22.4 38.4-26.7 61.4l1.23.226z"/><path style="fill:url(#af)" d="m140 193c2.4-12.6 7.84-23.8 15.4-33.1 5.71-10.1 8.8-19.6 10-28.4-13 17.6-22.4 38.4-26.7 61.4l1.23.226z"/><path style="fill:#e3f1df" d="m140 193c2.4-12.6 7.84-23.8 15.4-33.1 5.71-10.1 8.8-19.6 10-28.4-13 17.6-22.4 38.4-26.7 61.4l1.23.226z"/><path style="fill:#46c4d9" d="m264 132c27.3 6.49 52.2 20.6 71.9 40.4 21.5-6.46 35.8-21.3 35.8-21.3-.733-.732-1.47-1.46-2.22-2.18-20.9-20-46.1-32.8-72.5-38.3-7.61 9.12-18.2 17.4-32.9 21.4z"/><path style="fill:url(#ae)" d="m250 141c-4.36-2.29-9.02-4.18-13.9-5.6 10.7 3.33 20.7 9.1 29.4 17.4 1.45 1.39 2.9 2.7 4.34 3.94-5.68-6.34-12.4-11.6-19.8-15.7z"/><path style="fill:url(#ad)" d="m215 117c-5.86 6.69-13.7 12.9-24 18.2 13.3-4.15 27.5-4.53 40.9-1.1l.06-.267c-10.9-2.74-22.5-3.08-34.2-.535l-.277-1.22c22.8-5.08 45.6-4.64 66.9.427 14.6-4.01 25.3-12.3 32.9-21.4-27.3-5.73-55.9-3.74-82.2 5.89z"/><path style="fill:#d4e7b6" d="m215 117c-5.86 6.69-13.7 12.9-24 18.2 13.3-4.15 27.5-4.53 40.9-1.1l.06-.267c-10.9-2.74-22.5-3.08-34.2-.535l-.277-1.22c22.8-5.08 45.6-4.64 66.9.427 14.6-4.01 25.3-12.3 32.9-21.4-27.3-5.73-55.9-3.74-82.2 5.89z"/><path style="fill:url(#ac)" d="m215 117c-20.6 7.52-39.8 19.7-56.1 36.5l.905.869c8.94-9.18 19.7-15.6 31.1-19.2 10.3-5.31 18.2-11.5 24-18.2z"/><path style="fill:url(#ab)" d="m215 117c-20.6 7.52-39.8 19.7-56.1 36.5l.905.869c8.94-9.18 19.7-15.6 31.1-19.2 10.3-5.31 18.2-11.5 24-18.2z"/><path style="fill:#e7f1d0" d="m215 117c-20.6 7.52-39.8 19.7-56.1 36.5l.905.869c8.94-9.18 19.7-15.6 31.1-19.2 10.3-5.31 18.2-11.5 24-18.2z"/><path style="fill:#5cbfb8" d="m376 248c-.208-1.01-.42-2.03-.65-3.04-6.41-28.2-20.4-52.8-39.4-72-8.9 2.67-19 3.9-29.9 2.05 19.4 20.2 33 45.7 38.7 73.4 17.2 2.77 31.3-.425 31.3-.425z"/><path style="fill:url(#aa)" d="m269 156c8.19 9.15 14.2 20.4 17.2 33.3.762 3.35 1.64 6.52 2.61 9.52-1.57-15.3-7.83-29.5-17.6-41-.718-.585-1.44-1.19-2.16-1.81z"/><path style="fill:url(#z)" d="m250 141c7.41 4.06 14.1 9.37 19.8 15.7.719.62 1.44 1.23 2.16 1.81-6.06-7.08-13.5-13.1-21.9-17.5z"/><path style="fill:url(#x)" d="m250 141c7.41 4.06 14.1 9.37 19.8 15.7.719.62 1.44 1.23 2.16 1.81-6.06-7.08-13.5-13.1-21.9-17.5z"/><path style="fill:url(#w)" d="m240 135c26.2 7.46 48.8 21.6 66.6 40.1 10.9 1.85 21 .613 29.9-2.05-19.6-19.8-44.6-33.9-71.9-40.4-7.2 1.97-15.4 2.91-24.6 2.41z"/><path style="fill:#72cddc" d="m240 135c26.2 7.46 48.8 21.6 66.6 40.1 10.9 1.85 21 .613 29.9-2.05-19.6-19.8-44.6-33.9-71.9-40.4-7.2 1.97-15.4 2.91-24.6 2.41z"/><path style="fill:url(#v)" d="m240 135c9.27.5 17.4-.44 24.6-2.41-21.3-5.06-44.1-5.5-66.9-.427l.277 1.22c11.7-2.55 23.3-2.21 34.2.535l.199-.879c2.57.589 5.1 1.24 7.61 1.96z"/><path style="fill:url(#u)" d="m240 135c9.27.5 17.4-.44 24.6-2.41-21.3-5.06-44.1-5.5-66.9-.427l.277 1.22c11.7-2.55 23.3-2.21 34.2.535l.199-.879c2.57.589 5.1 1.24 7.61 1.96z"/><path style="fill:#a4dce8" d="m240 135c9.27.5 17.4-.44 24.6-2.41-21.3-5.06-44.1-5.5-66.9-.427l.277 1.22c11.7-2.55 23.3-2.21 34.2.535l.199-.879c2.57.589 5.1 1.24 7.61 1.96z"/><path style="fill:url(#t)" d="m232 134-.003.007c1.29.303 2.57.639 3.83 1-1.09-.34-2.18-.653-3.28-.942-.182-.023-.36-.044-.541-.068z"/><path style="fill:#91cd95" d="m289 199c.806 7.85.372 16-1.46 24.1-16.9 74.7 56 91.1 56 91.1.25-1.01.495-2.01.725-3.03 4.84-21.5 4.8-42.9.604-63.1-20.2-3.25-44.7-14.7-55.9-49.1z"/><path style="fill:url(#s)" d="m232 134-.016.07c.182.024.359.045.541.069-.175-.047-.349-.094-.525-.139z"/><path style="fill:url(#r)" d="m232 134-.016.07c.182.024.359.045.541.069-.175-.047-.349-.094-.525-.139z"/><path style="fill:url(#q)" d="m234 134c-.624-.068-1.25-.144-1.88-.224 1.1.289 2.19.602 3.28.942 4.9 1.42 9.55 3.31 13.9 5.6-4.84-2.65-9.97-4.78-15.3-6.32z"/><path style="fill:url(#p)" d="m234 134c-.624-.068-1.25-.144-1.88-.224 1.1.289 2.19.602 3.28.942 4.9 1.42 9.55 3.31 13.9 5.6-4.84-2.65-9.97-4.78-15.3-6.32z"/><path style="fill:url(#o)" d="m232 134c.176.045.35.092.525.139.632.081 1.26.156 1.88.224-.777-.224-1.56-.431-2.35-.63l-.059.267z"/><path style="fill:url(#m)" d="m232 134c.176.045.35.092.525.139.632.081 1.26.156 1.88.224-.777-.224-1.56-.431-2.35-.63l-.059.267z"/><path style="fill:url(#l)" d="m232 134c.176.045.35.092.525.139.632.081 1.26.156 1.88.224-.777-.224-1.56-.431-2.35-.63l-.059.267z"/><path style="fill:url(#k)" d="m271 158c9.78 11.4 16 25.7 17.6 41 11.2 34.4 35.7 45.8 55.9 49.1-5.74-27.7-19.3-53.2-38.7-73.4-11-1.86-22.8-6.85-34.8-16.7z"/><path style="fill:#7ecdc5" d="m271 158c9.78 11.4 16 25.7 17.6 41 11.2 34.4 35.7 45.8 55.9 49.1-5.74-27.7-19.3-53.2-38.7-73.4-11-1.86-22.8-6.85-34.8-16.7z"/><path style="fill:url(#j)" d="m240 135c-1.78-.096-3.6-.247-5.46-.451 5.34 1.54 10.5 3.66 15.3 6.32 8.48 4.45 15.9 10.4 21.9 17.5 12 9.81 23.8 14.8 34.8 16.7-17.7-18.5-40.4-32.6-66.6-40.1z"/><path style="fill:url(#i)" d="m240 135c-1.78-.096-3.6-.247-5.46-.451 5.34 1.54 10.5 3.66 15.3 6.32 8.48 4.45 15.9 10.4 21.9 17.5 12 9.81 23.8 14.8 34.8 16.7-17.7-18.5-40.4-32.6-66.6-40.1z"/><path style="fill:#afdeda" d="m240 135c-1.78-.096-3.6-.247-5.46-.451 5.34 1.54 10.5 3.66 15.3 6.32 8.48 4.45 15.9 10.4 21.9 17.5 12 9.81 23.8 14.8 34.8 16.7-17.7-18.5-40.4-32.6-66.6-40.1z"/><path style="fill:url(#h)" d="m232 133-.199.879c.787.199 1.57.406 2.35.63 1.86.205 3.68.355 5.46.451-2.51-.714-5.04-1.37-7.61-1.96z"/><path style="fill:#a4dce8" d="m232 133-.199.879c.787.199 1.57.406 2.35.63 1.86.205 3.68.355 5.46.451-2.51-.714-5.04-1.37-7.61-1.96z"/></g></svg>
