<?xml version="1.0" standalone="no"?>
<!DOCTYPE svg PUBLIC "-//W3C//DTD SVG 20010904//EN"
 "http://www.w3.org/TR/2001/REC-SVG-20010904/DTD/svg10.dtd">
<svg version="1.0" xmlns="http://www.w3.org/2000/svg"
 width="16.000000pt" height="16.000000pt" viewBox="0 0 16.000000 16.000000"
 preserveAspectRatio="xMidYMid meet">
<metadata>
Created by potrace 1.11, written by Peter Selinger 2001-2013
</metadata>
<g transform="translate(0.000000,16.000000) scale(0.003125,-0.003125)"
fill="#000000" stroke="none">
<path d="M2335 5114 c-484 -44 -961 -231 -1335 -523 -521 -407 -846 -946 -967
-1606 -26 -142 -26 -715 0 -848 127 -657 438 -1187 928 -1577 365 -292 748
-457 1254 -542 107 -18 580 -18 690 0 484 78 854 233 1220 511 144 109 372
341 488 496 259 348 409 712 489 1190 18 109 18 581 0 690 -103 614 -327 1061
-731 1465 -403 401 -847 627 -1431 726 -81 14 -512 27 -605 18z m1310 -1219
c61 -8 111 -15 113 -15 16 0 -41 -176 -88 -271 -32 -62 -118 -192 -131 -197
-5 -2 -9 -10 -9 -17 0 -21 -128 -133 -200 -176 -84 -49 -196 -92 -222 -83 -13
4 -18 2 -14 -4 8 -13 -50 -23 -179 -31 l-100 -6 70 -24 c189 -62 382 -161 530
-271 92 -69 238 -200 231 -207 -9 -9 -148 38 -221 74 -102 52 -169 101 -260
188 -95 92 -167 142 -278 196 -142 68 -217 83 -412 83 -160 0 -175 -2 -255
-28 -284 -94 -472 -252 -599 -504 -110 -218 -130 -462 -58 -709 36 -123 15
-91 -31 49 -131 395 -133 794 -5 1193 56 177 230 513 253 489 4 -5 22 -49 39
-97 35 -99 54 -238 45 -324 l-5 -58 33 40 c214 256 400 406 666 538 92 45 126
57 131 48 6 -10 9 -9 14 2 6 15 155 66 272 93 196 44 467 56 670 29z"/>
<path d="M2681 3714 c0 -11 3 -14 6 -6 3 7 2 16 -1 19 -3 4 -6 -2 -5 -13z"/>
<path d="M3103 3443 c26 -2 68 -2 95 0 26 2 4 3 -48 3 -52 0 -74 -1 -47 -3z"/>
<path d="M3338 3433 c6 -2 18 -2 25 0 6 3 1 5 -13 5 -14 0 -19 -2 -12 -5z"/>
<path d="M2678 3183 c6 -2 18 -2 25 0 6 3 1 5 -13 5 -14 0 -19 -2 -12 -5z"/>
<path d="M2523 3173 c9 -2 25 -2 35 0 9 3 1 5 -18 5 -19 0 -27 -2 -17 -5z"/>
<path d="M2823 3173 c9 -2 23 -2 30 0 6 3 -1 5 -18 5 -16 0 -22 -2 -12 -5z"/>
<path d="M2428 3163 c6 -2 18 -2 25 0 6 3 1 5 -13 5 -14 0 -19 -2 -12 -5z"/>
<path d="M2928 3163 c7 -3 16 -2 19 1 4 3 -2 6 -13 5 -11 0 -14 -3 -6 -6z"/>
<path d="M2358 3153 c7 -3 16 -2 19 1 4 3 -2 6 -13 5 -11 0 -14 -3 -6 -6z"/>
<path d="M2998 3153 c7 -3 16 -2 19 1 4 3 -2 6 -13 5 -11 0 -14 -3 -6 -6z"/>
</g>
</svg>
